<svg width="209" height="25" viewBox="0 0 209 25" fill="none" xmlns="http://www.w3.org/2000/svg">
<path d="M52.8864 25C52.8152 24.9822 52.744 24.9644 52.655 24.9466C51.8895 24.911 51.1419 24.8041 50.412 24.5727C49.8602 24.3946 49.3262 24.1809 48.8456 23.807C48.2047 23.3084 47.8487 22.6496 47.7953 21.8305C47.7597 21.2429 47.8843 20.7087 48.2047 20.2279C48.4005 19.943 48.6498 19.7115 48.9168 19.4979C49.1126 19.3554 49.3262 19.2308 49.5398 19.0883C49.7 18.9993 49.7 18.9281 49.5576 18.8212C49.1838 18.5541 48.8812 18.2158 48.6854 17.7885C48.3471 17.0228 48.3293 16.2571 48.6854 15.4915C48.9346 14.9751 49.2906 14.5477 49.7534 14.1916C49.7712 14.1738 49.789 14.156 49.8068 14.1382C49.9848 13.9957 49.9848 13.9601 49.8068 13.8355C49.2194 13.4081 48.7744 12.8561 48.4717 12.1973C48.1869 11.5919 48.0623 10.9509 48.0979 10.292C48.1157 9.82907 48.1869 9.38391 48.3293 8.93876C48.5786 8.15528 49.0236 7.49645 49.6466 6.94445C50.4476 6.26782 51.3911 5.87608 52.4235 5.69801C53.1 5.57337 53.7764 5.53776 54.4706 5.59118C54.9335 5.62679 55.3785 5.69801 55.8235 5.82266C55.9481 5.85827 56.0905 5.87608 56.2151 5.87608C57.746 5.87608 59.2769 5.87608 60.8077 5.87608C60.879 5.87608 60.9502 5.87608 61.0392 5.87608C61.0392 6.99787 61.0392 8.08405 61.0392 9.20585C60.3983 9.20585 59.7753 9.20585 59.1167 9.20585C59.1345 9.27707 59.1345 9.33049 59.1523 9.36611C59.3659 10.1318 59.3659 10.8974 59.2235 11.6809C58.9743 12.8917 58.2978 13.7999 57.1942 14.3875C56.5533 14.7258 55.8591 14.9217 55.1293 15.0107C54.613 15.0819 54.0968 15.1175 53.5806 15.0819C53.2424 15.0641 52.9042 15.0107 52.5481 14.9573C52.3345 14.9217 52.2811 14.9217 52.1565 15.1175C51.9785 15.3846 51.9607 15.6695 52.0675 15.9722C52.1387 16.1859 52.3167 16.2927 52.5125 16.364C52.7796 16.453 53.0644 16.5064 53.3492 16.5064C53.9188 16.5242 54.4884 16.5242 55.0581 16.5242C55.5921 16.5242 56.1083 16.5242 56.6423 16.542C57.4434 16.5776 58.2444 16.6845 58.9921 16.9516C59.6151 17.1653 60.1847 17.4858 60.6119 18.02C60.9146 18.3939 61.0926 18.8212 61.1816 19.2842C61.2884 19.854 61.2706 20.4238 61.1282 20.9936C60.9858 21.5456 60.7365 22.0442 60.3805 22.4715C59.8999 23.0769 59.2769 23.5221 58.6004 23.8604C57.8706 24.2343 57.1052 24.4836 56.3219 24.6439C55.5921 24.7863 54.8623 24.8754 54.1146 24.911C54.0256 24.911 53.9366 24.9288 53.8476 24.9466C53.545 25 53.2246 25 52.8864 25ZM54.0612 22.1154C54.6665 22.1154 55.1471 22.0798 55.6455 21.9373C55.9125 21.8661 56.1795 21.7593 56.4109 21.599C56.5711 21.4922 56.7135 21.3497 56.8026 21.1717C56.9628 20.8333 56.8916 20.3526 56.4109 20.1923C56.2863 20.1389 56.1617 20.1033 56.0193 20.1033C55.6633 20.0677 55.3251 20.0499 54.9691 20.0499C54.4528 20.0321 53.9366 20.0499 53.4204 20.0321C52.9932 20.0321 52.5659 19.9964 52.1565 19.9074C52.0675 19.8896 52.0141 19.9074 51.9607 19.9786C51.8717 20.0855 51.7827 20.1923 51.7115 20.317C51.4801 20.7087 51.4445 21.3141 52.0141 21.688C52.2277 21.8305 52.4769 21.9195 52.744 21.9729C53.2068 22.0976 53.6874 22.1154 54.0612 22.1154ZM52.4235 10.6304C52.4413 10.7728 52.4769 11.0221 52.5125 11.2714C52.5659 11.5385 52.6728 11.77 52.8508 11.9658C53.2602 12.4466 54.0434 12.5178 54.5596 12.2507C54.9513 12.0549 55.1649 11.7165 55.2539 11.307C55.3785 10.8084 55.3963 10.292 55.2539 9.77565C55.1471 9.3483 54.9335 9.00998 54.524 8.81411C54.257 8.68947 53.99 8.65385 53.6874 8.68947C53.1534 8.74289 52.7974 9.00998 52.5837 9.49075C52.4591 9.81126 52.4413 10.1674 52.4235 10.6304Z" fill="white"/>
<path d="M0 1.90527C0.124606 1.88747 0.231411 1.86966 0.356017 1.86966C1.70888 1.86966 3.06175 1.86966 4.41462 1.86966C4.48582 1.86966 4.55702 1.86966 4.64603 1.86966C4.64603 2.31482 4.64603 2.74217 4.64603 3.16952C4.64603 3.61467 4.64603 4.04202 4.64603 4.48718C4.64603 4.91453 4.64603 5.34188 4.64603 5.78704C4.64603 6.23219 4.64603 6.65955 4.64603 7.1047C4.64603 7.53205 4.64603 7.9594 4.64603 8.42237C4.73503 8.38675 4.78843 8.36895 4.82404 8.35114C4.85964 8.33333 4.87744 8.27992 4.89524 8.2443C6.30151 6.17878 7.68997 4.11325 9.09624 2.04772C9.18525 1.92308 9.27425 1.86966 9.43446 1.86966C10.9653 1.86966 12.4962 1.86966 14.0271 1.86966C14.0983 1.86966 14.1517 1.86966 14.2585 1.86966C14.2051 1.94088 14.1873 1.9943 14.1517 2.04772C13.2972 3.18732 12.4606 4.32692 11.624 5.46653C10.8051 6.58832 9.96849 7.71011 9.14965 8.83191C9.04284 8.99217 9.04284 8.99217 9.13185 9.15242C10.5559 11.5028 11.9622 13.8533 13.3685 16.2037C13.9737 17.2009 14.5611 18.198 15.1663 19.1774C15.2019 19.2308 15.2375 19.302 15.2909 19.391C15.2197 19.391 15.1841 19.4088 15.1307 19.4088C13.5465 19.4088 11.98 19.4088 10.3957 19.4088C10.2711 19.4088 10.2177 19.3554 10.1643 19.2486C9.20305 17.5926 8.2418 15.9188 7.28056 14.245C7.01354 13.7821 6.74653 13.3013 6.47952 12.8383C6.44391 12.7849 6.40831 12.7315 6.37271 12.6603C6.30151 12.7315 6.26591 12.7671 6.2303 12.8027C5.74968 13.4972 5.25126 14.2094 4.77063 14.886C4.69943 14.9929 4.66383 15.0997 4.66383 15.2244C4.66383 16.542 4.66383 17.8419 4.66383 19.1595C4.66383 19.2308 4.66383 19.302 4.66383 19.4088C4.57482 19.4088 4.52142 19.4088 4.45022 19.4088C3.04395 19.4088 1.63768 19.4088 0.231411 19.4088C0.160208 19.4088 0.0890043 19.4088 0.0178009 19.4266C0 13.5862 0 7.74573 0 1.90527Z" fill="white"/>
<path d="M20.3464 5.68021C20.3642 5.73362 20.382 5.78704 20.3998 5.84046C20.4354 5.53776 20.4354 5.21724 20.4354 4.91454C20.4354 4.59402 20.4354 4.29132 20.4354 3.93519C20.5066 3.98861 20.56 4.02422 20.6134 4.05983C20.9694 4.34474 21.3254 4.61183 21.6814 4.89673C21.7526 4.95015 21.8239 4.98576 21.9307 4.96795C22.8207 4.96795 23.7107 4.96795 24.583 4.96795C24.6542 4.96795 24.7254 4.96795 24.8144 4.96795C24.8144 3.953 24.8144 2.97365 24.8144 1.9765C26.2207 1.9765 27.5913 1.9765 28.9976 1.9765C28.9976 2.97365 28.9976 3.953 28.9976 4.96795C29.9945 4.96795 30.9913 4.96795 31.9525 4.96795C31.9703 4.98576 31.9703 4.98576 31.9881 4.98576C31.9881 4.98576 32.0059 4.98576 32.0059 5.00357C32.0059 5.03918 32.0238 5.0926 32.0238 5.12821C32.0238 6.44588 32.0238 7.76354 32.0238 9.0812C32.0238 9.09901 32.0059 9.11681 32.0059 9.15243C31.0269 9.15243 30.0479 9.15243 29.051 9.15243C29.051 9.24146 29.0332 9.29488 29.0332 9.3483C29.0332 10.1496 29.0332 10.9509 29.0332 11.7521C29.0332 12.0192 29.051 12.2863 29.0688 12.5534C29.1044 13.9423 28.7306 15.2244 28.0186 16.4174C27.3599 17.5214 26.4521 18.3761 25.3306 18.9815C24.583 19.391 23.7819 19.6581 22.9275 19.7828C22.3401 19.8718 21.7526 19.8896 21.1652 19.8184C20.115 19.6937 19.1359 19.3732 18.2281 18.839C17.516 18.4117 16.9108 17.8953 16.3768 17.2543C15.825 16.6311 15.4155 15.9366 15.1307 15.1709C14.9171 14.619 14.7747 14.0313 14.7213 13.4259C14.6501 12.8383 14.6679 12.2329 14.7569 11.6275C14.8993 10.666 15.2197 9.77565 15.7182 8.93875C16.4124 7.78134 17.3736 6.90884 18.5663 6.26781C19.1181 5.98291 19.6877 5.78704 20.293 5.64459C20.3108 5.6624 20.3286 5.6624 20.3464 5.68021ZM20.4354 10.0249C20.3464 10.0784 20.2752 10.114 20.2218 10.1496C19.1893 10.8618 18.7265 11.859 18.8867 13.1054C19.0469 14.4053 20.115 15.5093 21.5568 15.6695C22.2511 15.7407 22.9097 15.5983 23.4971 15.2066C24.494 14.5655 25.0102 13.4081 24.85 12.2329C24.8322 12.1439 24.8322 12.037 24.8322 11.948C24.8322 11.0933 24.8322 10.2208 24.8322 9.3661C24.8322 9.29488 24.8322 9.24146 24.8322 9.15243C24.7432 9.15243 24.672 9.15243 24.6186 9.15243C24.1202 9.15243 23.6039 9.15243 23.1055 9.15243C22.9631 9.15243 22.8563 9.18804 22.7495 9.27707C22.0553 9.82907 21.361 10.3811 20.6668 10.9152C20.6134 10.9509 20.56 10.9865 20.471 11.0577C20.4354 10.6838 20.4354 10.3811 20.4354 10.0249Z" fill="white"/>
<path d="M36.9368 7.58546C37.0258 7.53204 37.0792 7.49643 37.1326 7.44301C37.4886 7.14031 37.8447 6.81979 38.2363 6.5527C38.9661 6.07193 39.7493 5.73361 40.6216 5.62677C41.4582 5.53774 42.2771 5.59116 43.0603 5.91167C43.6833 6.17877 44.1818 6.58831 44.5556 7.14031C44.965 7.74572 45.1964 8.42236 45.321 9.13461C45.4634 9.81125 45.499 10.4879 45.499 11.1823C45.499 13.8533 45.499 16.5064 45.499 19.1773C45.499 19.2486 45.499 19.302 45.499 19.391C43.9504 19.391 42.4195 19.391 40.8708 19.391C40.8708 19.302 40.8708 19.2308 40.8708 19.1417C40.8708 16.7023 40.8708 14.2806 40.8708 11.8412C40.8708 11.485 40.853 11.1289 40.8174 10.7906C40.7996 10.5947 40.7462 10.3989 40.675 10.203C40.5504 9.82905 40.2656 9.59757 39.874 9.52635C39.3221 9.43731 38.8059 9.52635 38.3431 9.82905C38.0583 10.0071 37.8091 10.2386 37.542 10.4523C37.4886 10.5057 37.453 10.5591 37.4708 10.6303C37.4708 10.6838 37.4708 10.755 37.4708 10.8084C37.4708 13.5862 37.4708 16.364 37.4708 19.1239C37.4708 19.1952 37.4708 19.2842 37.4708 19.3732C35.9222 19.3732 34.3913 19.3732 32.8604 19.3732C32.8604 14.886 32.8604 10.3989 32.8604 5.89387C34.1065 5.89387 35.3347 5.89387 36.5986 5.89387C36.6164 5.94729 36.6342 6.00071 36.652 6.07193C36.741 6.49928 36.83 6.90882 36.9012 7.33617C36.9012 7.42521 36.919 7.47863 36.9368 7.58546Z" fill="white"/>
<path d="M120.494 19.4088C118.945 19.4088 117.415 19.4088 115.901 19.4088C115.866 19.2842 115.848 6.26781 115.884 5.94729C116.008 5.91168 119.212 5.89387 119.622 5.92949C119.64 5.98291 119.657 6.05413 119.675 6.10755C119.764 6.51709 119.835 6.94444 119.924 7.35399C119.96 7.56766 120.013 7.58547 120.174 7.44302C120.547 7.14031 120.903 6.83761 121.277 6.55271C122.043 6.01852 122.897 5.6802 123.841 5.60897C124.464 5.55556 125.069 5.59117 125.656 5.76923C126.493 6.00071 127.152 6.48148 127.614 7.21154C128.006 7.81695 128.22 8.47578 128.362 9.17023C128.487 9.82906 128.522 10.5057 128.522 11.1823C128.522 13.8533 128.522 16.5242 128.522 19.1952C128.522 19.2486 128.522 19.3198 128.522 19.3732C128.38 19.4088 124.214 19.4266 123.912 19.391C123.912 19.3198 123.894 19.2486 123.894 19.1595C123.894 16.7379 123.894 14.3162 123.894 11.8946C123.894 11.5385 123.876 11.1823 123.841 10.8262C123.823 10.6303 123.769 10.4345 123.716 10.2386C123.574 9.82906 123.307 9.59758 122.879 9.54416C122.274 9.45513 121.705 9.59758 121.206 9.9537C120.975 10.114 120.779 10.3098 120.565 10.4879C120.512 10.5413 120.494 10.5947 120.494 10.666C120.494 10.7194 120.494 10.7906 120.494 10.844C120.494 13.604 120.494 16.3818 120.494 19.1417C120.494 19.2308 120.494 19.302 120.494 19.4088Z" fill="white"/>
<path d="M152.055 19.4088C150.506 19.4088 148.975 19.4088 147.462 19.4088C147.445 19.391 147.445 19.391 147.445 19.391V19.3732C147.445 19.3554 147.427 19.3198 147.427 19.302C147.427 14.8682 147.427 10.4523 147.427 6.0185C147.427 6.0007 147.427 5.98289 147.427 5.96508C147.427 5.94728 147.445 5.94728 147.445 5.92947C148.673 5.92947 149.919 5.92947 151.165 5.92947C151.183 5.98289 151.201 6.03631 151.201 6.07192C151.29 6.49927 151.379 6.90881 151.45 7.33617C151.45 7.35397 151.45 7.38958 151.468 7.40739C151.503 7.54984 151.557 7.56765 151.663 7.47862C151.895 7.28275 152.108 7.08688 152.34 6.90882C152.981 6.39243 153.693 6.0007 154.476 5.78702C155.419 5.51993 156.381 5.51993 157.306 5.82263C158.072 6.05411 158.677 6.53488 159.122 7.19372C159.603 7.92377 159.834 8.72505 159.959 9.57976C160.048 10.1852 160.065 10.8084 160.065 11.4138C160.065 13.9957 160.065 16.5776 160.065 19.1595C160.065 19.2308 160.065 19.3198 160.065 19.391C159.923 19.4444 155.775 19.4444 155.455 19.4088C155.455 19.3376 155.437 19.2664 155.437 19.1773C155.437 17.0762 155.437 14.9929 155.437 12.8917C155.437 12.3397 155.419 11.8055 155.419 11.2535C155.419 10.933 155.366 10.6303 155.277 10.3276C155.135 9.88246 154.85 9.61537 154.387 9.56195C153.782 9.47292 153.248 9.61537 152.749 9.95369C152.518 10.1139 152.304 10.3098 152.091 10.5057C152.055 10.5413 152.037 10.6125 152.019 10.6659C152.002 10.7194 152.019 10.7728 152.019 10.8262C152.019 13.604 152.019 16.3818 152.019 19.1595C152.055 19.2308 152.055 19.302 152.055 19.4088Z" fill="white"/>
<path d="M106.734 5.59116C108.033 5.60896 109.262 5.94728 110.348 6.64173C111.166 7.15811 111.843 7.85255 112.341 8.67164C112.964 9.66879 113.285 10.7728 113.374 11.9302C113.463 13.052 113.374 14.156 113 15.2243C112.626 16.3461 112.003 17.3077 111.113 18.0912C110.187 18.8924 109.137 19.391 107.944 19.6047C106.894 19.8006 105.844 19.7471 104.829 19.4444C103.459 19.0349 102.319 18.2692 101.447 17.1296C100.735 16.2037 100.326 15.1353 100.148 13.9957C99.9519 12.7493 100.023 11.5206 100.379 10.3098C100.575 9.66879 100.86 9.06338 101.234 8.51138C101.643 7.88816 102.159 7.35398 102.747 6.90882C103.37 6.44586 104.046 6.10754 104.794 5.89386C105.274 5.75141 105.755 5.66238 106.253 5.62677C106.414 5.60896 106.574 5.59116 106.734 5.59116ZM108.656 12.6602C108.656 12.4466 108.674 12.2329 108.656 12.0192C108.621 11.5028 108.55 10.9865 108.354 10.4879C108.087 9.82905 107.66 9.38389 106.912 9.31267C106.218 9.24144 105.648 9.49073 105.274 10.0961C105.096 10.381 104.99 10.7016 104.918 11.0399C104.74 11.8946 104.74 12.7493 104.811 13.604C104.847 14.0135 104.918 14.4231 105.079 14.8148C105.346 15.4914 105.808 15.9544 106.574 16.0078C107.232 16.0434 107.766 15.812 108.14 15.2422C108.336 14.9394 108.443 14.6011 108.514 14.2628C108.639 13.7286 108.692 13.1944 108.656 12.6602Z" fill="white"/>
<path d="M174.609 14.0669C172.045 14.0669 169.5 14.0669 166.937 14.0669C166.937 14.1204 166.937 14.156 166.954 14.1916C167.257 15.2422 167.951 15.901 169.019 16.1325C169.998 16.3462 170.96 16.2571 171.885 15.8654C172.134 15.7585 172.384 15.6339 172.651 15.5093C172.704 15.4915 172.74 15.4558 172.811 15.4202C173.309 16.3283 173.808 17.2365 174.306 18.1446C174.092 18.287 173.897 18.4117 173.683 18.5363C172.918 18.9637 172.117 19.2664 171.262 19.4801C170.568 19.6403 169.874 19.7293 169.162 19.7115C168.343 19.6937 167.56 19.5691 166.794 19.2842C165.619 18.8746 164.622 18.1802 163.857 17.183C163.252 16.3996 162.86 15.5093 162.647 14.5477C162.397 13.4081 162.362 12.2507 162.575 11.0933C162.682 10.5057 162.86 9.9537 163.109 9.41951C163.519 8.5292 164.071 7.76353 164.818 7.1225C165.37 6.64173 165.993 6.2678 166.687 6.00071C167.204 5.80484 167.72 5.66239 168.272 5.60897C168.841 5.55555 169.411 5.57336 169.98 5.64458C170.461 5.71581 170.942 5.84045 171.405 6.03632C172.045 6.30342 172.615 6.67735 173.096 7.19373C173.808 7.94159 174.253 8.83191 174.52 9.82906C174.787 10.844 174.858 11.859 174.769 12.8917C174.751 13.2122 174.698 13.5506 174.644 13.8711C174.644 13.9423 174.626 13.9957 174.609 14.0669ZM170.853 11.0399C170.871 10.7906 170.835 10.5591 170.782 10.3276C170.621 9.68661 170.23 9.29487 169.589 9.15242C169.304 9.08119 169.019 9.08119 168.717 9.11681C168.432 9.15242 168.147 9.24145 167.898 9.3839C167.417 9.6688 167.15 10.0962 166.972 10.6125C166.919 10.755 166.901 10.8974 166.865 11.0399C168.2 11.0399 169.518 11.0399 170.853 11.0399Z" fill="white"/>
<path d="M85.7646 14.0669C83.2191 14.0669 80.6735 14.0669 78.0924 14.0669C78.1636 14.3874 78.2882 14.6545 78.4306 14.9216C78.8579 15.6161 79.4809 16.0078 80.2819 16.1503C80.6557 16.2215 81.0474 16.2393 81.4212 16.2215C82.1154 16.2037 82.7562 16.0078 83.3793 15.7229C83.5751 15.6339 83.7531 15.5448 83.9667 15.438C84.4651 16.3461 84.9636 17.2542 85.462 18.1624C85.4086 18.198 85.3552 18.2336 85.3196 18.2692C84.2871 18.9458 83.1301 19.3732 81.9196 19.6047C81.1008 19.7471 80.2819 19.7649 79.4631 19.6581C78.7689 19.5691 78.1102 19.391 77.4694 19.1061C76.882 18.839 76.3479 18.5007 75.8673 18.0911C75.2799 17.5926 74.8171 16.9872 74.461 16.2927C74.1406 15.7051 73.927 15.0641 73.8024 14.4052C73.6066 13.3725 73.571 12.3397 73.7312 11.307C73.8558 10.5235 74.0872 9.77561 74.461 9.08117C74.8349 8.38672 75.2977 7.78131 75.8851 7.24712C76.3479 6.83758 76.8464 6.49926 77.3982 6.21436C77.9856 5.92946 78.5908 5.73359 79.2317 5.64456C80.1929 5.50211 81.1542 5.57333 82.0976 5.85823C83.1479 6.17875 84.0023 6.76635 84.6609 7.65667C85.284 8.47576 85.64 9.41949 85.818 10.4166C86.0316 11.574 86.0138 12.7493 85.8002 13.9067C85.8002 13.9423 85.7824 13.9601 85.7824 13.9957C85.7824 14.0313 85.7824 14.0491 85.7646 14.0669ZM78.039 11.0221C78.3238 11.0577 81.9018 11.0577 82.062 11.0221C82.0264 10.8084 82.0264 10.5947 81.973 10.381C81.8662 9.88245 81.5992 9.47291 81.1008 9.25923C80.5489 9.02775 79.9793 9.02775 79.4097 9.22362C78.5908 9.52632 78.217 10.203 78.039 11.0221Z" fill="white"/>
<path d="M203.126 9.52633C201.595 9.52633 200.117 9.52633 198.622 9.52633C198.586 9.38388 198.569 6.19656 198.604 5.96508C198.729 5.92947 208.662 5.91166 208.875 5.96508C208.875 6.0185 208.893 6.07192 208.893 6.12534C208.893 6.83759 208.893 7.54984 208.893 8.26209C208.893 8.38673 208.858 8.47576 208.786 8.5826C207.167 10.8974 205.564 13.23 203.945 15.5627C203.891 15.6517 203.838 15.7229 203.749 15.8476C204.034 15.8654 204.283 15.8476 204.532 15.8476C204.781 15.8476 205.03 15.8476 205.28 15.8476C205.529 15.8476 205.778 15.8476 206.027 15.8476C206.276 15.8476 206.508 15.8476 206.757 15.8476C207.006 15.8476 207.256 15.8476 207.505 15.8476C207.754 15.8476 208.003 15.8476 208.252 15.8476C208.502 15.8476 208.751 15.8476 209 15.8476C209 17.0584 209 18.2336 209 19.4444C205.333 19.4444 201.684 19.4444 198.017 19.4444C198.017 19.391 197.999 19.3376 197.999 19.2842C197.999 18.5541 197.999 17.8419 197.999 17.1118C197.999 17.005 198.035 16.9337 198.088 16.8447C198.818 15.7941 199.566 14.7258 200.295 13.6752C200.972 12.6958 201.666 11.6987 202.342 10.7015C202.574 10.3632 202.805 10.0427 203.019 9.7222C203.055 9.65098 203.072 9.59756 203.126 9.52633Z" fill="white"/>
<path d="M87.4557 17.8419C88.1499 16.8803 88.8086 15.9366 89.485 15.0107C89.7698 15.1887 90.0368 15.3846 90.3038 15.5448C90.8556 15.8832 91.4253 16.1325 92.0661 16.2749C92.5645 16.3817 93.0808 16.3995 93.5792 16.2571C93.953 16.1503 94.1488 15.8832 94.131 15.527C94.131 15.2956 94.0242 15.1353 93.8462 15.0107C93.6504 14.8682 93.4368 14.7436 93.2232 14.6367C92.7425 14.4231 92.2263 14.2272 91.7457 14.0491C91.0693 13.782 90.4284 13.4793 89.841 13.0698C89.2892 12.6602 88.8264 12.1795 88.5237 11.574C88.2567 11.0577 88.1499 10.5235 88.1499 9.95368C88.1499 9.38388 88.2567 8.81408 88.4881 8.2977C88.6305 7.95938 88.8264 7.65667 89.0578 7.38958C89.6808 6.62391 90.5174 6.17875 91.4431 5.91166C92.3687 5.64456 93.3122 5.57334 94.2556 5.68018C95.2525 5.76921 96.1959 6.07191 97.0681 6.55268C97.4776 6.78416 97.8692 7.05126 98.2786 7.30055C98.332 7.33616 98.3676 7.37177 98.4388 7.42519C97.7624 8.33331 97.086 9.24143 96.4095 10.1674C96.3205 10.1139 96.2493 10.0605 96.1603 10.0071C95.7153 9.70439 95.2525 9.4373 94.754 9.25923C94.2556 9.08117 93.7394 8.99214 93.2232 9.08117C93.1342 9.09898 93.0274 9.11678 92.9383 9.1524C92.6891 9.24143 92.5289 9.40168 92.4755 9.66878C92.4221 9.93587 92.5111 10.1674 92.7425 10.3454C93.0274 10.5769 93.3656 10.7015 93.7038 10.844C94.309 11.0577 94.8964 11.2713 95.5017 11.5028C96.1425 11.7521 96.7299 12.0904 97.2462 12.5534C97.9048 13.141 98.2964 13.8711 98.421 14.7614C98.5278 15.5627 98.4388 16.3283 98.1184 17.0762C97.8514 17.6816 97.4598 18.198 96.9257 18.5897C96.1781 19.1595 95.3415 19.48 94.4336 19.6581C93.686 19.8005 92.9205 19.8362 92.1729 19.7827C91.6211 19.7471 91.0871 19.6403 90.5708 19.48C89.7164 19.2307 88.8976 18.8746 88.1321 18.3938C87.8829 18.1624 87.6871 18.0021 87.4557 17.8419Z" fill="white"/>
<path d="M196.183 6.99784C195.471 7.97719 194.759 8.95653 194.047 9.93587C193.994 9.90026 193.923 9.86465 193.887 9.82904C193.602 9.61536 193.317 9.41949 192.961 9.34827C192.089 9.20582 191.306 9.40169 190.665 10.0427C190.256 10.4523 190.024 10.9686 189.9 11.5384C189.704 12.4644 189.722 13.3903 190.06 14.2806C190.291 14.886 190.647 15.3846 191.217 15.7051C191.769 16.0256 192.374 16.079 192.997 15.9366C193.424 15.8297 193.816 15.6339 194.19 15.4024C194.296 15.3312 194.403 15.2599 194.546 15.1709C195.133 16.1859 195.721 17.1652 196.326 18.1802C196.13 18.3226 195.97 18.4651 195.774 18.5897C195.275 18.928 194.741 19.1951 194.154 19.3732C193.673 19.5335 193.175 19.6225 192.677 19.6759C192.178 19.7293 191.698 19.7293 191.199 19.6937C190.683 19.6581 190.184 19.5691 189.686 19.4266C189.116 19.2664 188.582 19.0349 188.102 18.7144C187.479 18.3404 186.962 17.8597 186.517 17.2899C185.983 16.6132 185.61 15.8476 185.378 15.0107C185.271 14.6011 185.2 14.1916 185.147 13.782C185.022 12.8917 185.04 12.0014 185.218 11.1111C185.432 10.0427 185.841 9.06337 186.535 8.20867C187.034 7.60325 187.603 7.08687 188.28 6.67733C188.707 6.41023 189.17 6.19656 189.668 6.0185C190.487 5.7336 191.342 5.59115 192.214 5.57334C193.673 5.55553 195.008 5.96508 196.148 6.90881C196.13 6.94442 196.148 6.96223 196.183 6.99784Z" fill="white"/>
<path d="M137.476 15.99C137.654 17.1118 137.832 18.2336 138.01 19.3732C137.832 19.4267 137.672 19.4979 137.494 19.5335C136.746 19.7294 135.963 19.765 135.198 19.7116C134.45 19.6581 133.738 19.4445 133.133 18.9815C132.741 18.6788 132.438 18.3227 132.225 17.8775C131.904 17.2543 131.744 16.5955 131.673 15.9188C131.637 15.4737 131.602 15.0285 131.602 14.5833C131.602 10.0249 131.602 5.44873 131.602 0.890328C131.602 0.819103 131.602 0.747878 131.602 0.676653C131.744 0.64104 135.892 0.623234 136.212 0.658847C136.212 0.694459 136.23 0.730072 136.23 0.783491C136.23 0.836909 136.23 0.908134 136.23 0.961553C136.23 5.53776 136.23 10.114 136.23 14.6902C136.23 14.9217 136.266 15.1531 136.301 15.3846C136.319 15.5093 136.372 15.6161 136.444 15.7229C136.568 15.9366 136.8 16.0257 137.067 16.0257C137.191 16.0257 137.316 16.0078 137.476 15.99Z" fill="white"/>
<path d="M63.3177 5.92947C64.5637 5.92947 65.8098 5.92947 67.0559 5.92947C67.0737 6.03631 67.0915 6.14315 67.1093 6.24999C67.1983 6.8554 67.2873 7.46081 67.3585 8.06623C67.3585 8.11964 67.3407 8.20868 67.4297 8.22648C67.5187 8.24429 67.5365 8.15526 67.5721 8.10184C67.8391 7.63888 68.1595 7.21152 68.5333 6.83759C69.103 6.2856 69.7616 5.87605 70.5448 5.68019C71.0611 5.55554 71.5951 5.57335 72.1113 5.64457C72.3071 5.66238 72.5029 5.7158 72.6987 5.76922C72.7877 5.78702 72.8767 5.82264 72.9836 5.87605C72.7343 7.19372 72.4851 8.52919 72.2359 9.84685C72.0223 9.81124 71.8265 9.75782 71.6307 9.72221C71.1501 9.63318 70.6872 9.57976 70.2066 9.6866C69.548 9.82905 69.0318 10.1852 68.6045 10.6837C68.3375 10.9865 68.1417 11.3426 67.9815 11.7165C67.9281 11.8412 67.9103 11.9658 67.9103 12.1082C67.9103 14.4587 67.9103 16.8091 67.9103 19.1595C67.9103 19.2308 67.9103 19.3198 67.9103 19.4088C66.3616 19.4088 64.8307 19.4088 63.3177 19.4088C63.2999 19.2664 63.2821 6.26779 63.3177 5.92947Z" fill="white"/>
<path d="M139.666 5.92947C141.196 5.92947 142.727 5.92947 144.258 5.92947C144.258 10.4167 144.258 14.9038 144.258 19.4088C142.727 19.4088 141.196 19.4088 139.666 19.4088C139.63 19.2664 139.63 6.23218 139.666 5.92947Z" fill="white"/>
<path d="M180.091 19.7293C178.863 19.7293 177.848 18.9637 177.528 17.7706C177.279 16.8625 177.403 16.0078 177.937 15.2422C178.347 14.6545 178.934 14.2984 179.646 14.1738C181.284 13.9067 182.601 15.0463 182.761 16.5776C182.833 17.2187 182.726 17.8419 182.405 18.4117C181.925 19.2486 181.088 19.7293 180.091 19.7293Z" fill="white"/>
<path d="M142.033 4.25569C141.107 4.25569 140.324 3.66809 140.075 2.75997C139.879 2.06552 139.968 1.4245 140.395 0.819085C140.716 0.373928 141.161 0.0890276 141.695 0.0178025C142.941 -0.178066 143.938 0.694441 144.062 1.85185C144.116 2.35042 144.045 2.81339 143.795 3.24074C143.422 3.89957 142.781 4.2735 142.033 4.25569Z" fill="white"/>
<path d="M22.9988 9.08119C23.0878 9.00996 23.1768 8.93874 23.2658 8.88532C23.4616 8.72506 23.6752 8.5648 23.871 8.40455C24.0668 8.2621 24.2448 8.11965 24.4406 7.95939C24.6008 7.83475 24.761 7.7101 24.9212 7.58546C24.9924 7.51424 24.9924 7.46082 24.9034 7.38959C24.5652 7.1225 24.227 6.87321 23.9066 6.60612C23.7286 6.46367 23.5506 6.33902 23.3726 6.19657C23.159 6.01851 22.9275 5.84045 22.7139 5.66238C22.5359 5.51993 22.3579 5.39529 22.1799 5.25284C22.0731 5.16381 21.9663 5.07478 21.8595 4.98574C21.8595 4.98574 21.8595 4.96794 21.8773 4.96794C21.9129 4.96794 21.9485 4.95013 21.9841 4.95013C22.8919 4.95013 23.7998 4.95013 24.7076 4.95013C24.8322 4.95013 24.8322 4.95013 24.8322 4.82549C24.8322 3.89956 24.8322 2.99144 24.8322 2.06552C24.8322 2.0299 24.8322 1.99429 24.8322 1.95868C26.2207 1.95868 27.6092 1.95868 28.9976 1.95868C28.9976 1.99429 28.9976 2.0299 28.9976 2.06552C28.9976 2.99144 28.9976 3.89956 28.9976 4.82549C28.9976 4.96794 28.9976 4.96794 29.1401 4.96794C30.0479 4.96794 30.9735 4.96794 31.8814 4.96794C31.917 4.96794 31.9526 4.96794 32.006 4.96794C32.006 6.35683 32.006 7.72791 32.006 9.1168C31.9704 9.1168 31.9348 9.1168 31.8814 9.1168C30.9735 9.1168 30.0657 9.1168 29.1579 9.1168C29.0154 9.1168 28.9976 9.13461 28.9976 9.27706C28.9976 10.0961 28.9976 10.8974 28.9976 11.7165C28.9976 11.8234 28.9976 11.9302 29.0154 12.037C29.0154 12.1795 29.0154 12.1795 28.8908 12.1795C27.7694 12.1795 26.6301 12.1795 25.5087 12.1795C25.3307 12.1795 25.1527 12.1795 24.9568 12.1795C24.8322 12.1795 24.8322 12.1795 24.8322 12.0548C24.8322 11.1111 24.8322 10.1852 24.8322 9.24144C24.8322 9.1168 24.8322 9.1168 24.7076 9.1168C24.1736 9.1168 23.6396 9.1168 23.1056 9.1168C23.07 9.1168 23.0344 9.1168 22.9988 9.1168C23.0166 9.09899 23.0166 9.09899 22.9988 9.08119Z" fill="#E30613"/>
</svg>
