<svg width="118" height="118" viewBox="0 0 118 118" fill="none" xmlns="http://www.w3.org/2000/svg">
<g filter="url(#filter0_d)">
<circle cx="59" cy="55" r="39" fill="#E30613"/>
</g>
<path d="M45.3326 37.0073C43.4997 37.0073 42 38.5068 42 40.3399V68.6674C42 70.5005 43.4997 72 45.3326 72H71.9938C73.8267 72 75.3264 70.5005 75.3264 68.6674V40.3399C75.3264 38.5068 73.8267 37.0073 71.9938 37.0073H68.6611V38.6569C68.6611 41.4229 66.4116 43.6559 63.6622 43.6559H53.6642C50.9148 43.6559 48.6653 41.4229 48.6653 38.6569V37.0073H45.3326ZM51.9979 57.0031H56.9969V52.0042C56.9969 51.0875 57.7467 50.3378 58.6632 50.3378C59.5797 50.3378 60.3295 51.0875 60.3295 52.0042V57.0031H65.3285C66.245 57.0031 66.9948 57.7528 66.9948 58.6694C66.9948 59.5859 66.245 60.3358 65.3285 60.3358H60.3295V65.3347C60.3295 66.2512 59.5797 67.001 58.6632 67.001C57.7467 67.001 56.9969 66.2512 56.9969 65.3347V60.3358H51.9979C51.0814 60.3358 50.3316 59.5859 50.3316 58.6694C50.3316 57.7528 51.0814 57.0031 51.9979 57.0031Z" fill="white"/>
<path d="M60.3355 32H57.0029C56.0864 32 55.3365 32.7497 55.3365 33.6663V36.999H52.0039V38.6653C52.0039 39.5984 52.7538 40.3316 53.6702 40.3316H63.6681C64.5846 40.3316 65.3345 39.5984 65.3345 38.6653V36.999H62.0018V33.6663C62.0018 32.7497 61.252 32 60.3355 32ZM58.6692 36.999C57.7527 36.999 57.0029 36.2658 57.0029 35.3326C57.0029 34.416 57.7527 33.6663 58.6692 33.6663C59.5857 33.6663 60.3355 34.416 60.3355 35.3326C60.3355 36.2658 59.5857 36.999 58.6692 36.999Z" fill="white"/>
<defs>
<filter id="filter0_d" x="0" y="0" width="118" height="118" filterUnits="userSpaceOnUse" color-interpolation-filters="sRGB">
<feFlood flood-opacity="0" result="BackgroundImageFix"/>
<feColorMatrix in="SourceAlpha" type="matrix" values="0 0 0 0 0 0 0 0 0 0 0 0 0 0 0 0 0 0 127 0"/>
<feOffset dy="4"/>
<feGaussianBlur stdDeviation="10"/>
<feColorMatrix type="matrix" values="0 0 0 0 0 0 0 0 0 0 0 0 0 0 0 0 0 0 0.07 0"/>
<feBlend mode="normal" in2="BackgroundImageFix" result="effect1_dropShadow"/>
<feBlend mode="normal" in="SourceGraphic" in2="effect1_dropShadow" result="shape"/>
</filter>
</defs>
</svg>
