<svg width="118" height="118" viewBox="0 0 118 118" fill="none" xmlns="http://www.w3.org/2000/svg">
<g filter="url(#filter0_d)">
<circle cx="59" cy="55" r="39" fill="#E30613"/>
</g>
<path d="M38.9055 40H74.4221C74.9232 40 75.3281 40.4053 75.3281 40.906V52.1412H65.4028C64.603 52.1412 63.9535 52.7916 63.9535 53.5904V64.6441H60.1209L61.6977 68.7413C61.6977 69.0808 61.4231 69.3554 61.0831 69.3554H52.2449C51.9063 69.3554 51.6308 69.0813 51.6308 68.7413L53.2072 64.6441H38.9055C38.4049 64.6441 38 64.2378 38 63.7381V40.9055C38 40.4053 38.4049 40 38.9055 40Z" fill="white"/>
<path d="M75.0059 68.6306C75.0059 69.1312 75.4116 69.537 75.9118 69.537H79.7173C80.2183 69.537 80.6232 69.1308 80.6232 68.6306V60.2953C80.6232 59.7951 80.2179 59.3889 79.7173 59.3889H75.9118C75.4112 59.3889 75.0059 59.7956 75.0059 60.2953V68.6306Z" fill="white"/>
<path d="M74.3135 69.1285C74.2631 68.9678 74.2372 68.7994 74.2372 68.6306V60.2953C74.2372 59.3707 74.9888 58.6191 75.913 58.6191H77.4984V53.5904C77.4984 53.216 77.1934 52.9109 76.8194 52.9109H65.4031C65.0291 52.9109 64.7236 53.2155 64.7236 53.5904V68.4495C64.7236 68.8239 65.0291 69.1285 65.4031 69.1285H74.3135Z" fill="white"/>
<defs>
<filter id="filter0_d" x="0" y="0" width="118" height="118" filterUnits="userSpaceOnUse" color-interpolation-filters="sRGB">
<feFlood flood-opacity="0" result="BackgroundImageFix"/>
<feColorMatrix in="SourceAlpha" type="matrix" values="0 0 0 0 0 0 0 0 0 0 0 0 0 0 0 0 0 0 127 0"/>
<feOffset dy="4"/>
<feGaussianBlur stdDeviation="10"/>
<feColorMatrix type="matrix" values="0 0 0 0 0 0 0 0 0 0 0 0 0 0 0 0 0 0 0.07 0"/>
<feBlend mode="normal" in2="BackgroundImageFix" result="effect1_dropShadow"/>
<feBlend mode="normal" in="SourceGraphic" in2="effect1_dropShadow" result="shape"/>
</filter>
</defs>
</svg>
