<svg width="118" height="118" viewBox="0 0 118 118" fill="none" xmlns="http://www.w3.org/2000/svg">
<g filter="url(#filter0_d)">
<circle cx="59" cy="55" r="39" fill="#E30613"/>
</g>
<path d="M72.717 68.2303L71.9506 68.8825L70.4328 67.0999C76.5365 60.8364 76.9801 50.808 71.1979 44.0207C65.0654 36.8225 54.2198 35.955 47.0209 42.0874C39.822 48.2199 38.9552 59.0655 45.0877 66.2644C50.8699 73.0517 60.8408 74.2081 67.996 69.178L69.5144 70.9593L68.748 71.6115L74.2328 78.0512L78.4366 74.9465L72.717 68.2303ZM67.5544 66.192C61.4624 71.3819 52.2833 70.6482 47.094 64.5555C41.904 58.4635 42.6378 49.2837 48.7305 44.0938C54.8225 38.9038 64.0023 39.6389 69.1922 45.7309C74.3815 51.8236 73.6464 61.002 67.5544 66.192Z" fill="white"/>
<path d="M63.0583 59.8182C62.1348 59.5867 61.1994 60.1496 60.9685 61.0731C60.7383 61.9967 61.3012 62.9334 62.2248 63.1629C63.1484 63.3932 64.0837 62.8316 64.3146 61.9067C64.5448 60.9831 63.9826 60.0485 63.0583 59.8182ZM63.4347 61.6882C63.3245 62.1259 62.8822 62.392 62.4446 62.2831C62.0069 62.1741 61.7395 61.7306 61.8497 61.2929C61.9586 60.8553 62.4022 60.5892 62.8398 60.6981C63.2775 60.807 63.5436 61.2506 63.4347 61.6882Z" fill="white"/>
<path d="M62.6909 46.2064C62.6211 45.8711 62.5396 45.5405 62.3922 45.23C62.3798 45.2052 62.3687 45.1798 62.3583 45.1563C62.3583 45.155 62.3583 45.155 62.3583 45.155C62.3368 45.11 62.3185 45.0637 62.3022 45.0173C62.2533 44.8849 62.205 44.7525 62.1561 44.6188C62.1196 44.5177 62.0824 44.4166 62.0458 44.3162C62.0393 44.2973 62.0322 44.2797 62.0256 44.2614C62.0335 44.2575 62.0406 44.2542 62.0485 44.249C62.1724 44.4466 62.297 44.643 62.4222 44.8399C62.4033 44.7734 62.3798 44.7075 62.3537 44.6436C62.2402 44.3684 62.0935 44.1159 61.875 43.9111C61.8286 43.8687 61.7863 43.8211 61.751 43.7689C61.5299 43.4389 61.2625 43.1591 60.8972 42.9875C60.8875 42.9823 60.8757 42.9778 60.8659 42.9725C60.697 42.8988 60.5287 42.8277 60.3598 42.756C60.3174 42.7371 60.2763 42.7195 60.2332 42.7012C60.318 42.7077 60.4035 42.7175 60.487 42.7299C60.9644 42.801 61.4145 42.9615 61.8521 43.1689C61.8345 43.15 61.8156 43.1376 61.7973 43.1252C61.2723 42.7703 60.6859 42.5929 60.0624 42.5192C60.0389 42.5166 60.0147 42.514 59.99 42.5121C59.7812 42.4918 59.5699 42.4847 59.3697 42.4044C59.292 42.3731 59.2086 42.3555 59.1257 42.3346C59.0305 42.3112 58.9359 42.287 58.842 42.2635C58.8185 42.2583 58.7957 42.2538 58.7735 42.2472C58.7748 42.2362 58.7735 42.2401 58.7761 42.227H59.8536C59.8465 42.2055 59.836 42.1996 59.8262 42.1983C59.356 42.1311 58.8864 42.0796 58.4128 42.1233C58.2504 42.137 58.0906 42.1448 57.9275 42.122C57.8564 42.1122 57.784 42.1096 57.7123 42.1031C57.711 42.092 57.711 42.0946 57.711 42.0829C58.0626 42.0163 58.4148 41.9518 58.7872 41.8813C58.4135 41.8911 58.0613 41.9152 57.7136 41.9779C57.5199 42.0118 57.3301 42.0744 57.1338 42.0992C56.8565 42.1357 56.5735 42.1507 56.291 42.1742C56.8487 41.9081 57.4449 41.7933 58.0534 41.7254C57.9386 41.7294 57.8245 41.7241 57.711 41.7307C57.2896 41.7522 56.8722 41.8018 56.4632 41.9133C56.126 42.0059 55.8045 42.1344 55.5286 42.3594C55.4764 42.4018 55.4125 42.4305 55.3551 42.467C55.3485 42.4573 55.3427 42.4481 55.3362 42.4397C55.4633 42.3483 55.586 42.2485 55.7184 42.1657C55.8534 42.0809 55.9956 42.0072 56.1397 41.9394C56.28 41.8728 56.4261 41.8207 56.5683 41.7633C56.2845 41.8344 56.0119 41.9348 55.7497 42.0633C55.2285 42.3196 54.8372 42.7456 54.3871 43.0945C54.3858 43.0958 54.3845 43.0958 54.3832 43.0971C54.3545 43.1447 54.3232 43.191 54.2971 43.2393C54.2599 43.3117 54.2306 43.3906 54.1869 43.4591C54.1667 43.4904 54.1243 43.5113 54.0884 43.5263C54.0147 43.5563 53.9358 43.5752 53.8634 43.6078C53.4759 43.7813 53.247 44.0853 53.1498 44.4942C53.2424 44.3077 53.3611 44.142 53.532 43.9907C53.4857 44.1505 53.4472 44.2933 53.4022 44.4329C53.382 44.4955 53.3533 44.5543 53.3187 44.6077C53.2313 44.7441 53.1635 44.8889 53.1113 45.0617C53.1837 44.9365 53.2476 44.8282 53.3116 44.7206C53.3168 44.7232 53.3214 44.7258 53.3266 44.7277C53.32 44.7578 53.3142 44.7865 53.3077 44.8165C53.3064 44.8217 53.305 44.8275 53.3037 44.8328C53.1237 45.6252 53.0774 46.4425 53.1563 47.2513L53.3227 48.9563C53.339 49.1239 53.3487 49.2915 53.3598 49.4598C53.4146 50.2895 53.7662 51.0735 54.425 51.8412C54.4439 51.8634 54.4615 51.8934 54.4687 51.9214C54.7002 52.6487 55.04 53.2364 55.5077 53.7177C56.2115 54.4404 57.0464 54.8226 57.9236 54.8226H57.9249C58.7989 54.8226 59.6299 54.4437 60.3298 53.7262C60.7785 53.2664 61.1112 52.7048 61.346 52.0088C61.3721 51.9312 61.421 51.8464 61.481 51.774C62.1619 50.9463 62.4959 50.1042 62.4946 49.2094V49.0241L62.5083 45.9266C62.4933 45.8242 62.477 45.7192 62.462 45.6142C62.4796 45.6552 62.4946 45.6963 62.5109 45.7355C62.5383 45.8079 62.5657 45.8757 62.5898 45.9442C62.6277 46.0505 62.6596 46.1568 62.6948 46.2645C62.6974 46.2423 62.6948 46.2247 62.6909 46.2064ZM60.7883 51.2033C60.6585 51.3605 60.5568 51.5392 60.4961 51.7205C60.305 52.2867 60.0402 52.738 59.6886 53.0994C59.1609 53.6394 58.5511 53.9258 57.9249 53.9258H57.9236C57.2936 53.9258 56.6811 53.6368 56.1502 53.0909C55.7829 52.7132 55.5129 52.241 55.3238 51.6494C55.2801 51.5092 55.2024 51.3696 55.1066 51.2568C54.4615 50.5041 54.1928 49.784 54.2593 48.9896L54.2645 48.938C54.2671 48.8943 54.2717 48.8343 54.2782 48.7958C54.4954 48.7234 54.6245 48.516 54.6304 48.2219C54.6356 48.0131 54.6376 47.8031 54.6389 47.5996C54.6415 47.372 54.6428 47.1398 54.65 46.9082C54.65 46.5208 54.9637 46.2084 55.3485 46.2084C55.3557 46.2084 55.3622 46.2084 55.3701 46.2097L55.7216 46.2194C56.0106 46.196 56.3028 46.1992 56.593 46.1947C56.8546 46.192 57.1142 46.1947 57.3744 46.1947H58.9809C59.187 46.1934 59.3931 46.1894 59.5999 46.1894C59.7786 46.1881 59.9573 46.1881 60.1361 46.1881C60.3096 46.1881 60.4811 46.1842 60.6513 46.2371C60.849 46.2971 60.9964 46.4132 61.0812 46.5945C61.1347 46.7119 61.1601 46.8417 61.1973 46.9617C61.1999 46.9604 61.2025 46.9565 61.2038 46.9552C61.2103 47.1528 61.2103 47.355 61.209 47.5637C61.209 47.7451 61.209 47.9309 61.2129 48.1188C61.2142 48.1677 61.2129 48.2173 61.2129 48.2727V48.3764C61.2129 48.5852 61.3629 48.7652 61.5678 48.8017C61.5749 48.8402 61.5814 48.8943 61.5841 48.9165C61.6662 49.7162 61.4145 50.4421 60.7883 51.2033Z" fill="white"/>
<path d="M57.0948 68.229C60.5967 68.5094 63.993 67.4124 66.6588 65.1412C67.2229 64.6605 67.5165 63.9346 67.446 63.1969L67.2699 61.3549C66.9934 59.0701 65.8369 57.639 63.9187 56.917L63.9069 56.9137C63.9813 57.2379 64.0113 57.5738 64.0191 57.8621C64.0348 58.4517 63.9656 59.1157 63.8378 59.6212C64.6322 60.1306 65.0268 61.107 64.7972 62.0274C64.4802 63.298 63.1216 64.0389 61.8601 63.5686C60.9092 63.2145 60.3143 62.2354 60.4382 61.2284C60.6 59.9154 61.836 59.0629 63.0812 59.314C63.254 58.6207 63.3179 57.9456 63.2553 57.4434C63.2201 57.1531 63.1444 56.9144 63.0303 56.7363C63.0185 56.7174 63.0068 56.6998 62.9951 56.6822L62.9207 56.6633C62.9024 56.6444 62.8848 56.6261 62.8666 56.6078C62.8203 56.5974 62.7746 56.587 62.7283 56.5772C62.1308 56.4539 61.3266 55.5544 60.9842 54.822L60.8524 54.9205L59.6164 57.6566L58.82 59.4203L58.7496 59.421L58.7424 59.3675L58.5122 57.7095V57.7088L58.4887 57.5432L58.9178 57.114L58.9185 57.1133L58.9929 57.0396C59.2088 56.8231 59.2459 56.4806 59.0711 56.2302C58.8957 55.9797 58.6048 55.816 58.2754 55.816H57.5286C57.1933 55.816 56.8978 55.9862 56.723 56.2452C56.5561 56.493 56.5998 56.8276 56.8117 57.0396L56.9252 57.1531L57.3153 57.5432L57.3009 57.6475L57.0668 59.3362L57.0524 59.4399L57.0198 59.4406L54.8204 54.822C54.478 55.5544 53.6738 56.4539 53.0763 56.5772C52.9543 56.602 52.8356 56.63 52.7189 56.6594L52.4854 56.7305C52.5917 57.2118 52.7476 57.9241 52.7658 57.9756C52.7945 58.0584 52.8271 58.1504 52.8598 58.2535C52.9211 58.4472 53.0039 58.7087 53.0828 59.012C53.4755 58.954 53.9542 58.9925 54.2673 59.0485C54.9515 59.2084 55.4629 59.5788 55.6364 59.8736C55.6468 59.8841 55.6625 59.8984 55.6729 59.9089C55.7023 59.9239 55.7329 59.9402 55.7636 59.9565C56.4178 60.325 56.9017 60.9225 57.1639 61.6843C57.2083 61.8134 57.207 61.9537 57.1607 62.0802C57.1483 62.1141 57.1326 62.1467 57.1137 62.178C57.1339 62.255 57.1522 62.3313 57.1679 62.4057C57.3277 63.1675 57.2846 63.9319 57.0478 64.5568C56.9181 64.8992 56.7335 65.1856 56.4987 65.4093C56.5574 65.7191 56.3676 66.0185 56.0708 66.0805C55.7714 66.1431 55.2581 65.9957 55.1896 65.6715C55.1218 65.3473 55.5327 65.0062 55.8321 64.9436C55.9136 64.9266 55.9971 64.9286 56.0773 64.9501C56.6532 64.4061 56.7426 63.3521 56.5704 62.5303C56.5352 62.4905 56.4934 62.4435 56.4576 62.4044C56.3056 62.3444 56.1817 62.2172 56.1249 62.0541C55.7427 60.942 54.7076 60.4822 53.2831 60.7914L53.2778 60.7927L53.2713 60.7933C51.957 61.1207 51.2839 61.9198 51.3759 63.0442C51.3915 63.2321 51.3152 63.4134 51.1789 63.5295C51.1691 63.5595 51.1606 63.5843 51.1509 63.615C51.3133 64.4472 51.8227 65.406 52.5819 65.678C52.6471 65.6265 52.7228 65.5906 52.8043 65.5737C53.1037 65.511 53.617 65.6585 53.6855 65.9833C53.7533 66.3074 53.3424 66.6486 53.043 66.7112C52.7463 66.7731 52.4514 66.5749 52.3817 66.2677C52.0771 66.1568 51.7927 65.9683 51.537 65.7074C51.0687 65.2293 50.723 64.5464 50.5638 63.7845C50.5482 63.7095 50.5345 63.6345 50.5221 63.5549C50.3825 63.4565 50.2925 63.2986 50.2781 63.1225C50.2149 62.3437 50.4047 61.6223 50.828 61.032C50.7517 60.6022 51.3289 59.6943 52.3053 59.2481C52.2316 58.9579 52.1521 58.7048 52.0868 58.4987L52.0842 58.4896C52.0438 58.3624 52.006 58.243 51.974 58.1295C51.9257 57.958 51.822 57.4721 51.7385 56.975C49.9096 57.7147 48.8054 59.1294 48.536 61.3543L48.399 62.7964C48.3325 63.4943 48.5895 64.185 49.0976 64.669C51.2676 66.7347 54.0599 67.9863 57.0948 68.229Z" fill="white"/>
<defs>
<filter id="filter0_d" x="0" y="0" width="118" height="118" filterUnits="userSpaceOnUse" color-interpolation-filters="sRGB">
<feFlood flood-opacity="0" result="BackgroundImageFix"/>
<feColorMatrix in="SourceAlpha" type="matrix" values="0 0 0 0 0 0 0 0 0 0 0 0 0 0 0 0 0 0 127 0"/>
<feOffset dy="4"/>
<feGaussianBlur stdDeviation="10"/>
<feColorMatrix type="matrix" values="0 0 0 0 0 0 0 0 0 0 0 0 0 0 0 0 0 0 0.07 0"/>
<feBlend mode="normal" in2="BackgroundImageFix" result="effect1_dropShadow"/>
<feBlend mode="normal" in="SourceGraphic" in2="effect1_dropShadow" result="shape"/>
</filter>
</defs>
</svg>
