<svg width="118" height="118" viewBox="0 0 118 118" fill="none" xmlns="http://www.w3.org/2000/svg">
<g filter="url(#filter0_d)">
<circle cx="59" cy="55" r="39" fill="#E30613"/>
</g>
<path d="M77.4107 66.9089C76.6267 64.2084 75.5903 62.4991 74.5618 61.4027C72.869 59.5978 71.193 59.4556 70.6818 59.3369C70.5845 59.316 70.4881 59.2942 70.3903 59.2769C70.0778 58.9871 69.8294 58.5822 69.6378 58.0982C69.1561 56.8853 69.0147 55.1609 69.0276 53.448C69.0547 50.364 69.5961 47.3084 69.5961 47.3084C69.5961 47.3084 69.5961 47.3084 69.5961 47.3076C69.5961 46.8804 69.5858 46.4707 69.5698 46.0698C69.5645 45.9431 69.5561 45.8222 69.5498 45.6982C69.5352 45.4276 69.5196 45.1609 69.4961 44.9022C69.4841 44.7658 69.4707 44.6338 69.4578 44.5004C69.4343 44.2618 69.4058 44.0289 69.3743 43.8018C69.3578 43.6742 69.3414 43.5467 69.3223 43.4222C69.2876 43.1898 69.2485 42.9622 69.2076 42.7409C69.1867 42.6391 69.1703 42.5342 69.1503 42.4329C69.0876 42.1307 69.021 41.8364 68.949 41.5542C68.9445 41.544 68.9436 41.5333 68.9401 41.5213C68.8627 41.2253 68.7805 40.9449 68.6916 40.6742C68.6632 40.5933 68.6361 40.5164 68.6081 40.4382C68.5472 40.2516 68.4787 40.0676 68.4103 39.8916C68.3765 39.8031 68.341 39.7156 68.3054 39.6311C68.2405 39.4716 68.169 39.316 68.0987 39.1658C68.0614 39.0831 68.0241 39.0009 67.985 38.9218C67.9076 38.7698 67.8303 38.6231 67.7525 38.4818C67.7152 38.4151 67.6787 38.3471 67.6423 38.2831C67.5374 38.1009 67.4245 37.9236 67.3152 37.756C67.305 37.7396 67.2952 37.7213 67.2823 37.704C67.1574 37.5191 67.029 37.3436 66.9005 37.1787C66.8623 37.1302 66.8232 37.0849 66.7832 37.0391C66.6894 36.9236 66.5965 36.8116 66.5001 36.7049C66.4498 36.652 66.401 36.6018 66.3516 36.5476C66.2641 36.4529 66.1738 36.3627 66.0827 36.2751C66.0325 36.2258 65.9827 36.1778 65.9325 36.132C65.837 36.0453 65.7423 35.9644 65.6458 35.8836C65.5992 35.8444 65.5521 35.8044 65.5063 35.768C65.385 35.6724 65.2623 35.5804 65.1383 35.4947C65.1192 35.4791 65.0974 35.4627 65.0792 35.4493C64.9361 35.3493 64.7903 35.2573 64.645 35.1707C64.6032 35.1462 64.561 35.124 64.5201 35.1004C64.417 35.0396 64.3125 34.9831 64.213 34.932C64.1583 34.9036 64.1063 34.8782 64.0534 34.852C63.9596 34.8067 63.8694 34.7636 63.7774 34.7227C63.7227 34.6991 63.6707 34.6764 63.617 34.6542C63.5232 34.6142 63.4321 34.5796 63.3374 34.5449C63.2898 34.5267 63.2392 34.5076 63.1943 34.4902C63.0858 34.4511 62.9756 34.4156 62.8703 34.3836C62.841 34.3747 62.8094 34.3636 62.7818 34.3556C62.6472 34.3156 62.517 34.2809 62.3885 34.2489C62.345 34.2387 62.3058 34.2307 62.2645 34.2218C62.177 34.2018 62.089 34.1809 62.005 34.1644C61.9556 34.1551 61.9058 34.1453 61.8592 34.1373C61.7845 34.1236 61.7098 34.1111 61.6396 34.1C61.5903 34.092 61.5423 34.0853 61.4983 34.08C61.429 34.0707 61.3587 34.0618 61.2907 34.0547C61.245 34.0502 61.2027 34.0444 61.161 34.04C61.0898 34.0338 61.0214 34.0271 60.9534 34.0227C60.9178 34.0209 60.8832 34.0164 60.8516 34.0147C60.757 34.0084 60.6703 34.0067 60.585 34.0027C60.5458 34.0018 60.5121 34.0018 60.473 34.0018C60.4312 34.0018 60.3863 34.0009 60.3454 34.0009C60.137 34.0009 59.9703 34.0089 59.8525 34.0191C59.8361 34.0191 59.8254 34.02 59.8125 34.0218C59.7698 34.0244 59.7361 34.028 59.7116 34.0307C59.7023 34.0316 59.6907 34.0324 59.6845 34.0342C59.661 34.0351 59.6472 34.0378 59.6472 34.0378C59.5258 34.0298 59.405 34.0249 59.2858 34.0204C59.1667 34.024 59.0472 34.0298 58.9245 34.036C58.9245 34.036 58.9098 34.0351 58.8872 34.0324C58.8792 34.0316 58.8681 34.0307 58.861 34.0298C58.8374 34.0271 58.801 34.0236 58.7601 34.0204C58.749 34.0196 58.7356 34.0196 58.7201 34.0187C58.6027 34.008 58.437 34 58.2285 34C58.1867 34 58.1401 34 58.0956 34C58.0592 34 58.0281 34 57.9907 34.0009C57.9058 34.0036 57.8147 34.008 57.721 34.0129C57.693 34.0147 57.6618 34.0173 57.6325 34.02C57.5623 34.0244 57.4894 34.0302 57.4121 34.0391C57.3721 34.0418 57.3312 34.0471 57.2921 34.052C57.2201 34.06 57.1481 34.0693 57.0725 34.0791C57.029 34.0853 56.9858 34.092 56.9414 34.0982C56.8623 34.1102 56.7841 34.1236 56.7027 34.1391C56.6601 34.1471 56.617 34.1538 56.5734 34.1618C56.4787 34.1809 56.3858 34.2027 56.2867 34.2236C56.2538 34.2316 56.2223 34.2391 56.1867 34.2462C56.0538 34.2773 55.9192 34.3129 55.7841 34.3547C55.7623 34.36 55.7405 34.3684 55.7183 34.3747C55.6054 34.4102 55.4898 34.4476 55.3738 34.4884C55.3294 34.504 55.2845 34.5213 55.2392 34.5387C55.1418 34.5751 55.0454 34.6133 54.9476 34.6542C54.8983 34.6742 54.8476 34.696 54.7992 34.7187C54.7018 34.7596 54.6054 34.8071 54.5076 34.8542C54.4592 34.8778 54.4094 34.9009 54.361 34.9271C54.2543 34.9827 54.1441 35.0436 54.0356 35.1067C54.0001 35.1284 53.9627 35.1467 53.9263 35.1693C53.7805 35.2569 53.6338 35.3498 53.4863 35.4516C53.4725 35.4609 53.4592 35.4716 53.4463 35.4809C53.3161 35.572 53.1867 35.6684 53.0583 35.7707C53.0147 35.8044 52.9716 35.8418 52.9281 35.8764C52.8281 35.9591 52.7303 36.0449 52.6321 36.1333C52.5827 36.1796 52.5338 36.2262 52.4863 36.2716C52.3916 36.3609 52.3005 36.4547 52.2085 36.552C52.1618 36.6013 52.1147 36.6511 52.069 36.7013C51.9698 36.8107 51.873 36.9262 51.7765 37.044C51.741 37.0884 51.7054 37.1289 51.6698 37.1751C51.5378 37.3418 51.4094 37.5173 51.2836 37.7036C51.2743 37.7173 51.2663 37.7329 51.2574 37.7453C51.1427 37.9164 51.0334 38.096 50.9214 38.2836C50.8858 38.3453 50.853 38.412 50.8165 38.4764C50.7374 38.6213 50.6578 38.7698 50.5814 38.9236C50.5423 39.0027 50.5058 39.0822 50.4685 39.164C50.3983 39.3169 50.329 39.4738 50.2592 39.6356C50.2254 39.7204 50.189 39.8049 50.1561 39.8916C50.0867 40.0702 50.0196 40.256 49.9556 40.4462C49.9303 40.5236 49.901 40.5964 49.8774 40.6756C49.7881 40.948 49.7036 41.2302 49.6267 41.5253C49.6241 41.5364 49.6205 41.5498 49.6187 41.5609C49.5467 41.8422 49.4783 42.1356 49.4183 42.4378C49.3992 42.5378 49.3818 42.6418 49.3618 42.7418C49.321 42.9631 49.281 43.1924 49.2454 43.4258C49.2263 43.5489 49.2107 43.6764 49.1934 43.8036C49.1632 44.0311 49.1343 44.2636 49.1125 44.504C49.0978 44.6378 49.0854 44.7698 49.0734 44.9067C49.0525 45.1636 49.0334 45.4302 49.0187 45.7C49.0116 45.8249 49.0032 45.9458 48.9987 46.0742C48.9823 46.4742 48.9716 46.8849 48.9716 47.3111C48.9716 47.3111 48.9716 47.3111 48.9716 47.312C48.9716 47.312 49.5125 50.3684 49.5401 53.4516C49.5565 55.1649 49.4134 56.888 48.9307 58.1036C48.737 58.5871 48.4916 58.9924 48.1783 59.2796C48.0774 59.2987 47.9832 59.3196 47.8885 59.3422C47.3747 59.4613 45.7001 59.6027 44.0076 61.4067C42.9783 62.5049 41.9418 64.2164 41.157 66.9147C41.0867 67.1578 41.0387 67.4044 41.0174 67.6542C40.9472 68.3991 41.0903 69.1533 41.4325 69.8C43.1312 73.0129 52.0654 74 59.2876 74C66.5098 74 75.4463 73.0129 77.1445 69.7996C77.4841 69.1493 77.6272 68.396 77.5596 67.6529C77.5272 67.3991 77.4805 67.152 77.4107 66.9089ZM51.3214 46.7502C51.3667 46.7182 51.4161 46.6964 51.4681 46.6876C51.5863 46.6676 51.7103 46.712 51.8307 46.8098C51.8307 46.8098 51.8307 46.8009 51.8334 46.7827C51.8752 46.3747 52.4183 41.7964 55.8463 42.1142L66.3254 47.5084L67.177 46.6889C67.205 46.6942 67.2352 46.7036 67.261 46.716C67.6316 46.8916 67.793 47.7627 67.6134 48.7578C67.4778 49.5209 67.1801 50.1502 66.865 50.4191C66.7374 50.5249 66.6072 50.5756 66.485 50.5547C66.4156 50.5427 66.3494 50.5084 66.293 50.4547C65.5934 52.6284 64.2583 54.7942 62.5725 56.0969C61.5881 56.8547 60.4858 57.3182 59.3192 57.3182C58.1463 57.3182 57.037 56.8484 56.0485 56.0813C54.3716 54.7782 53.0414 52.6196 52.3463 50.4547C52.289 50.5067 52.2272 50.5413 52.1561 50.5547C52.0138 50.58 51.8601 50.508 51.7152 50.3618C51.4218 50.0667 51.1525 49.4711 51.0241 48.7578C50.8561 47.8178 50.9898 46.988 51.3214 46.7502ZM52.1343 70.2347C51.9836 70.36 51.7956 70.4289 51.5974 70.4289H50.6694C50.2041 70.4289 49.8258 70.0498 49.8258 69.5844C49.8361 69.1107 50.2147 68.7409 50.6694 68.7409H51.5974C51.693 68.7409 51.7858 68.7569 51.8752 68.7884C51.9312 68.772 51.9485 68.7591 51.949 68.7591C52.0521 68.5756 52.0521 67.8129 52.0521 67.4467C52.0521 66.7076 51.8672 65.8156 51.5432 64.9871C51.3747 64.8916 51.2392 64.7471 51.1556 64.5724C50.5921 63.3942 49.8276 62.6333 49.2063 62.6333C48.5703 62.6333 47.7672 63.456 47.2072 64.6796C47.1161 64.8791 46.9552 65.0418 46.7574 65.1382C46.4645 65.9324 46.3036 66.7489 46.3036 67.4462C46.3036 67.7538 46.3036 68.5711 46.421 68.7618C46.4227 68.7618 46.4485 68.7782 46.5227 68.7964C46.6192 68.7591 46.7201 68.7404 46.825 68.7404H47.7547C48.2001 68.7404 48.5698 69.0889 48.5974 69.5342L48.6041 69.5609L48.5987 69.5844C48.5987 70.0502 48.2201 70.4289 47.7552 70.4289H46.825C46.641 70.4289 46.4627 70.3676 46.3156 70.2547C45.785 70.1551 45.4112 69.9209 45.1738 69.5391C44.8867 69.0791 44.8338 68.4733 44.8338 67.4462C44.8338 66.5453 45.0418 65.5084 45.4196 64.5182C45.3636 64.3062 45.3827 64.0844 45.4747 63.8849C45.8685 63.0244 46.369 62.2876 46.9218 61.7547C47.2267 61.4613 47.5534 61.2258 47.8943 61.0542C48.0187 60.7622 48.2312 60.5164 48.4934 60.36C48.6321 59.5827 49.0667 58.7609 49.6996 58.0889C50.5725 57.1618 51.669 56.6511 52.7876 56.6511H53.0098V56.6556C53.397 56.6778 53.7045 56.9956 53.7045 57.3871C53.7045 57.7787 53.3974 58.0969 53.0098 58.1187V58.1213H52.9854C52.9792 58.1213 52.9743 58.1231 52.9681 58.1231C52.9618 58.1231 52.957 58.1213 52.9507 58.1213H52.7876C51.4107 58.1213 50.2698 59.4258 49.9818 60.4382C50.1792 60.5849 50.3396 60.7836 50.4454 61.0151C51.3943 61.4631 52.233 62.4062 52.8752 63.7493C52.9823 63.9751 52.9965 64.2302 52.9178 64.4631C53.3027 65.4542 53.5227 66.5364 53.5227 67.4458C53.5227 68.7204 53.5227 69.9253 52.1343 70.2347ZM68.6201 69.9444C68.6201 70.0978 68.481 70.2222 68.3094 70.2222H66.6201V71.9107C66.6201 72.0827 66.4956 72.2222 66.3427 72.2222H64.6756C64.5223 72.2222 64.3983 72.0827 64.3983 71.9107V70.2222H62.709C62.5374 70.2222 62.3978 70.0978 62.3978 69.9444V68.2778C62.3978 68.124 62.5374 68 62.709 68H64.3983V66.3107C64.3983 66.1387 64.5223 66 64.6756 66H66.3427C66.4956 66 66.6201 66.1391 66.6201 66.3107V68H68.3094C68.4814 68 68.6201 68.124 68.6201 68.2778V69.9444ZM70.6703 63.9987C70.2401 64.8031 69.4063 65.3027 68.4938 65.3027C68.0912 65.3027 67.689 65.2013 67.3321 65.0102C66.1338 64.3702 65.6801 62.8724 66.321 61.6733C66.6298 61.0964 67.1561 60.6724 67.7858 60.4849C67.5667 59.6271 66.9787 58.6004 65.9467 58.2613L65.7263 58.1889C65.6961 58.18 65.665 58.172 65.6365 58.1596L65.5592 58.1342L65.5641 58.1204C65.3418 57.992 65.1907 57.7551 65.1907 57.4804C65.1907 57.0716 65.5223 56.74 65.9312 56.74C65.9592 56.74 65.9858 56.7453 66.0134 56.7484L66.0174 56.7369L66.0712 56.7547C66.1312 56.7658 66.1876 56.7849 66.2414 56.8102L66.4067 56.864C67.469 57.2133 68.3512 58.0409 68.8916 59.1947C69.0894 59.6182 69.2272 60.0591 69.3014 60.5076C69.4298 60.5516 69.5485 60.6022 69.6605 60.6627C70.8574 61.3027 71.3116 62.7996 70.6703 63.9987Z" fill="white"/>
<path d="M68.4954 64.1693C69.2318 64.1693 69.8288 63.5724 69.8288 62.836C69.8288 62.0996 69.2318 61.5027 68.4954 61.5027C67.7591 61.5027 67.1621 62.0996 67.1621 62.836C67.1621 63.5724 67.7591 64.1693 68.4954 64.1693Z" fill="white"/>
<defs>
<filter id="filter0_d" x="0" y="0" width="118" height="118" filterUnits="userSpaceOnUse" color-interpolation-filters="sRGB">
<feFlood flood-opacity="0" result="BackgroundImageFix"/>
<feColorMatrix in="SourceAlpha" type="matrix" values="0 0 0 0 0 0 0 0 0 0 0 0 0 0 0 0 0 0 127 0"/>
<feOffset dy="4"/>
<feGaussianBlur stdDeviation="10"/>
<feColorMatrix type="matrix" values="0 0 0 0 0 0 0 0 0 0 0 0 0 0 0 0 0 0 0.07 0"/>
<feBlend mode="normal" in2="BackgroundImageFix" result="effect1_dropShadow"/>
<feBlend mode="normal" in="SourceGraphic" in2="effect1_dropShadow" result="shape"/>
</filter>
</defs>
</svg>
