<svg width="19" height="19" viewBox="0 0 19 19" fill="none" xmlns="http://www.w3.org/2000/svg">
<path fill-rule="evenodd" clip-rule="evenodd" d="M13.1271 12.1769H12.2975L12.0035 11.8933C13.0326 10.6961 13.6522 9.14189 13.6522 7.45112C13.6522 3.681 10.5962 0.625 6.82612 0.625C3.056 0.625 0 3.681 0 7.45112C0 11.2212 3.056 14.2772 6.82612 14.2772C8.51689 14.2772 10.0711 13.6576 11.2683 12.6285L11.5519 12.9225V13.7521L16.8027 18.9925L18.3675 17.4277L13.1271 12.1769ZM6.82611 12.1769C4.21119 12.1769 2.10034 10.066 2.10034 7.45112C2.10034 4.83619 4.21119 2.72534 6.82611 2.72534C9.44104 2.72534 11.5519 4.83619 11.5519 7.45112C11.5519 10.066 9.44104 12.1769 6.82611 12.1769Z" fill="#979797"/>
</svg>
