<svg width="601" height="283" viewBox="0 0 601 283" fill="none" xmlns="http://www.w3.org/2000/svg">
<ellipse cx="265" cy="242.5" rx="265" ry="30.5" fill="#F1F1F1"/>
<g clip-path="url(#clip0)">
<path d="M54 217.848V182.109L121.394 87.5435H167.488V180.804H184.45V217.848H167.488V244H124.431V217.848H54ZM127.706 136.565L97.0568 180.804H127.706V136.565Z" fill="#E30613"/>
<path d="M201.174 165.109C201.174 141.13 206.293 122.152 216.509 108.13C226.726 94.1087 242.625 87.1087 264.23 87.1087C285.834 87.1087 301.777 94.1522 312.059 108.239C322.34 122.326 327.503 141.283 327.503 165.109C327.503 189.087 322.362 208.109 312.059 222.196C301.755 236.283 285.834 243.326 264.23 243.326C242.625 243.326 226.726 236.283 216.509 222.196C206.293 208.109 201.174 189.087 201.174 165.109ZM285.314 165.109C285.314 153.196 283.904 143.978 281.084 137.435C278.264 130.891 272.646 127.63 264.23 127.63C255.814 127.63 250.217 130.891 247.376 137.435C244.556 143.978 243.146 153.196 243.146 165.109C243.146 177.174 244.556 186.456 247.376 193C250.196 199.543 255.814 202.804 264.23 202.804C272.624 202.804 278.242 199.543 281.084 193C283.904 186.478 285.314 177.174 285.314 165.109Z" fill="#E30613"/>
<path d="M345.55 217.848V182.109L412.944 87.5435H459.038V180.804H476V217.848H459.038V244H415.981V217.848H345.55ZM419.256 136.565L388.607 180.804H419.256V136.565Z" fill="#E30613"/>
<path d="M227.528 105.087C227.528 105.087 227.941 110.109 229.676 120.152C229.676 120.152 232.019 130.739 231.281 143.848C230.544 156.957 227.724 169.217 227.724 169.217C227.724 169.217 230.175 170.826 234.817 172.5C237.984 173.652 242.56 175.478 249.133 175.739C270.629 176.543 270.498 175.848 274.923 170.978C278.481 167.065 286.008 162.739 285.248 153.326C284.012 138.239 285.162 125.696 285.162 125.696C285.01 112.217 286.94 107.283 287.07 99.1304H291.3C291.17 98.4565 291.994 80.7826 282.689 77.087C273.232 73.3261 262.017 73.1087 262.017 73.1087C248.417 73.7391 237.984 74.087 229.524 75.5435C223.364 76.9348 216.336 81.4348 215.056 86.9565C213.668 93.0435 210.544 113.978 212.041 121.891C212.041 121.891 214.427 131.283 217.529 131.109C220.631 130.935 259.328 118.087 259.328 118.087L260.282 110.239L226.834 114.761L227.528 105.087Z" fill="url(#paint0_linear)"/>
<path d="M285.899 157.848C285.899 157.848 283.448 161.761 276.919 164.109C264.208 168.717 234.513 166.152 229.264 161.13C229.264 161.13 228.222 164.283 228.027 166.326C227.29 173.587 225.88 198.413 255.835 201.826L259.436 188.609L264.577 188.413L271.865 202.87C271.865 202.87 287.027 196.674 290.519 181.413L285.899 157.848Z" fill="#56516E"/>
<path d="M289.067 82.9565C289.566 86.1739 291.301 99.1087 291.301 99.1087H286.681C286.681 99.1087 286.876 97.2391 286.811 94.5C286.572 83.7609 285.943 79.1087 282.69 77.0652C282.668 77.0652 288.373 78.3913 289.067 82.9565Z" fill="#D1E4F6"/>
<path d="M291.279 99.1087L294.077 129.413L293.751 132.413L284.272 122.043L286.658 99.1087H291.279Z" fill="#F79D75"/>
<path d="M284.273 122.043L247.745 137.978L243.146 137.435L240.869 138.109L239.069 140.196C238.852 140.435 238.895 140.956 239.611 141L240.457 140.826L244.231 139.783L240.196 141.13L235.056 141.761V143.37L237.919 146.391L241.107 148.304C241.107 148.304 244.274 148.543 245.337 148.283C246.964 147.87 250.999 145.022 250.999 145.022L285.791 136.391C286.789 136.152 287.743 135.761 288.633 135.261L293.752 132.413C293.752 132.413 295.964 126.609 289.761 123.283C288.524 122.609 284.273 122.043 284.273 122.043Z" fill="#F79D75"/>
<path d="M286.659 99.1087L289.782 123.283C288.286 122.413 287.309 122.065 285.726 121.935C285.119 121.891 284.251 122.043 284.251 122.043L286.659 99.1087Z" fill="#EC8B6C"/>
<path d="M257.137 68.9565C256.226 64.7391 259.805 62.0652 263.449 61.3913C265.684 60.9782 267.853 59.5 269.328 58.7174C272.712 56.8913 270.911 47.7609 271.085 45.413C271.258 43.0652 277.44 43.1304 275.618 40.6304C273.492 39.0652 272.039 37.6739 271.041 36.4348C267.31 31.8261 269.783 28.8478 268.265 23.6956C266.725 18.3478 264.1 14.6522 263.167 13.4348C262.994 13.1956 262.864 13.0652 262.842 13.0217C262.864 13.0652 262.951 13.1739 263.081 13.3696C264.187 15.1087 268.482 22.3696 263.167 23.6304C236.813 29.8478 236.683 50.4348 236.683 50.4348C236.683 50.4348 243.667 56.3043 243.797 65.6956C243.819 67.5 243.515 69.6739 242.821 71.6739C240.804 73.1522 237.463 74.2826 236.683 74.5869C236.683 74.5869 240.587 84.4782 253.905 84.5C269.241 84.5217 265.64 73.3478 265.64 73.3478C265.64 73.3478 261.194 72.5869 258.591 71.9348C258.591 71.8913 257.311 69.7609 257.137 68.9565Z" fill="#F79D75"/>
<path d="M249.61 57.8261C249.61 57.8261 250.478 70.3478 258.59 71.8913C258.547 71.7609 258.46 71.7174 258.308 71.4565C258.2 71.2391 257.918 70.7174 257.441 69.7826C257.224 69.3696 256.92 68.4348 257.202 66.913C257.94 62.7826 260.152 62.7174 261.692 62.8261L262.864 60.5C262.235 60.5652 254.708 60.1739 249.61 57.8261Z" fill="#EC8B6C"/>
<path d="M257.592 0C257.592 0 261.908 9.69565 248.004 11.2609C236.768 12.5217 226.986 19.8043 225.207 32.2174C223.428 44.6087 233.233 57.4565 243.796 65.9348C243.796 65.9348 243.666 64.7391 245.857 55.5652C248.048 46.3696 244.295 52.8478 241.909 46.9348C239.588 41.1522 244.208 39.5652 245.64 42.4348C245.965 43.087 246.725 46.087 246.985 47.3478C247.158 48.2174 247.245 49.5217 247.267 51C247.354 56.7391 251.583 61.587 257.267 62.413C259.522 62.7391 262.082 62.9565 264.858 62.9348C265.704 62.9348 266.702 62.8913 267.657 62.8478C269.782 62.7391 271.474 60.9783 271.474 58.8478L271.366 50.3261C271.366 50.3261 256.29 53.2609 252.386 50.5C251.345 49.7609 250.716 45.6739 250.716 45.6739C250.716 45.6739 249.545 36.9565 251.518 31.9348C254.121 25.3478 276.919 24.1957 266.897 7.84783C265.336 5.19565 263.318 2.69565 257.592 0Z" fill="url(#paint1_radial)"/>
<path d="M270.087 56.1957C270.087 57.4783 268.786 56.5 267.202 56.5C265.619 56.5 264.317 57.4783 264.317 56.1957C264.317 54.913 265.619 53.8913 267.202 53.8913C268.786 53.8913 270.087 54.9348 270.087 56.1957Z" fill="#F79D75"/>
<path d="M228.44 27.6957L235.598 28.1522C236.466 28.2174 237.16 28.9348 237.16 29.8261C237.16 30.7391 236.422 31.4783 235.511 31.5C233.494 31.5217 230.045 31.5 227.985 31.0652C227.16 30.8913 226.575 30.1304 226.64 29.2826V29.2391C226.748 28.3261 227.529 27.6304 228.44 27.6957Z" fill="#FBCBC8"/>
<path d="M233.299 26.0217C232.887 27.4783 232.562 29.8478 232.995 33.3261C233.104 34.2174 232.41 35 231.52 35H231.39C230.674 35 230.067 34.5 229.937 33.8261C229.612 32.1522 229.265 28.8913 230.458 25.1739C230.653 24.5435 231.238 24.1087 231.889 24.1087C232.887 24.087 233.581 25.0435 233.299 26.0217Z" fill="#F7C0B5"/>
<path d="M267.267 105.239L258.156 107.565C259.892 114.196 258.395 119.63 258.395 119.63L270.303 115.87C272.993 115.022 274.62 112.261 274.056 109.5C273.405 106.413 270.325 104.478 267.267 105.239Z" fill="white"/>
<path d="M264.599 188.413C264.599 188.413 270.043 187.913 275.488 179.739L271.887 202.87L264.599 188.413Z" fill="#534F6A"/>
<path d="M259.436 188.609L253.124 186.783L255.835 201.826L259.436 188.609Z" fill="#534F6A"/>
<path d="M229.286 161.13L240.609 197.065C240.609 197.065 228.483 190.783 227.464 175.152C227.247 172 226.878 168.087 229.286 161.13Z" fill="#4C4862"/>
<path d="M288.611 172.87C288.611 172.87 290.541 184.761 281.301 196.5C281.301 196.5 289.001 190.5 290.541 181.413L288.611 172.87Z" fill="#534F6A"/>
<path d="M266.139 105.522C266.139 105.522 264.1 115.848 259.154 119.63L263.145 106.283L266.139 105.522Z" fill="#BCDDF4"/>
<path d="M273.253 107.587C273.253 107.587 276.854 115.13 259.805 119.217C259.805 119.217 268.416 116.848 271.084 115.565C271.843 115.196 276.29 112.674 273.253 107.587Z" fill="#D1E4F6"/>
<path d="M227.528 105.087C227.528 105.087 236.422 103.087 248.005 93.2609C259.588 83.4348 228.591 113.391 228.591 113.391L227.528 105.087Z" fill="#A1D4F3"/>
<path d="M227.334 107.348C227.334 107.348 220.371 114.022 211.499 117.478L227.095 111.022L227.334 107.348Z" fill="#A1D4F3"/>
<path d="M262.386 111.326C261.756 114.63 260.889 117.391 259.804 119.217C257.418 120.152 234.404 127.413 223.038 130.978C216.032 133.174 212.539 130.196 211.954 124.522C211.889 124.022 211.693 122.413 211.542 120.804C211.411 119.152 211.346 117.5 211.607 117.043C253.123 104.152 258.59 71.8913 258.59 71.8913L261.995 73.087C264.229 82.3696 264.555 100.065 262.386 111.326Z" fill="white"/>
<path d="M259.805 119.218C257.419 120.153 234.404 127.414 223.038 130.979C216.032 133.175 212.54 130.196 211.954 124.522C211.889 124.022 211.694 122.414 211.542 120.805C214.036 128.935 219.85 129.675 255.922 117.718C263.058 115.37 263.145 107.022 263.145 106.327C263.145 106.349 264.056 116.262 259.805 119.218Z" fill="#D1E4F6"/>
<path d="M231.434 138.696C231.434 138.696 233.928 163.804 251.91 166.326C251.91 166.326 235.728 166.043 229.286 161.13C229.286 161.13 230.306 153.543 230.523 151.065C230.826 147.935 231.434 138.696 231.434 138.696Z" fill="#A1D4F3"/>
</g>
<ellipse cx="420" cy="263.5" rx="31" ry="19.5" fill="#F1F1F1"/>
<path d="M539.08 72.5915C543.992 76.1852 546.921 77.7456 548.574 78.8332C550.699 80.2044 553.249 80.4408 554.241 81.292C557.642 84.1291 555.942 87.9119 556.178 89.425C555.186 92.2148 553.202 92.404 550.368 92.8296C549.188 92.3094 550.274 88.9522 548.621 87.9592C547.109 87.0608 547.251 87.2499 547.251 87.2499C547.251 87.2499 548.243 88.2902 548.81 89.6142C549.282 90.6544 549.707 91.2691 549.896 91.6001C550.179 92.1676 549.991 92.8296 549.707 93.066C549.14 93.4915 548.196 93.2078 545.645 90.5126C544.795 89.6142 542.859 85.1694 541.489 84.0345C539.6 82.4741 538.561 81.4338 533.743 79.3533L539.08 72.5915Z" fill="#FAC5A3"/>
<path d="M516.835 130.516C516.835 130.516 513.954 134.062 504.791 136.899C495.628 139.736 486.229 94.5791 486.229 94.5791L516.835 130.516Z" fill="#B5CCDB"/>
<path d="M457.844 170.141C457.844 170.141 459.402 157.516 466.392 148.059L444.761 98.2201L457.844 170.141Z" fill="#B5CCDB"/>
<path d="M382.983 121.863C379.63 124.274 376.371 126.213 373.726 126.922C369.664 124.132 365.13 125.929 363.052 127.773C362.155 128.577 361.116 129.192 360.313 129.854C359.793 130.279 350.725 134.157 352.189 136.19C352.992 137.325 358.376 134.062 359.651 133.684C360.927 136.379 360.927 138.602 363.005 139.074C365.083 139.547 368.767 139.973 371.081 139.689C373.396 139.405 376.985 134.866 379.394 134.346C380.244 134.157 383.881 132.265 388.604 129.617L382.983 121.863Z" fill="#FAC5A3"/>
<path d="M428.088 256.436L427.38 262.347L434.937 262.82L436.259 255.585L428.088 256.436Z" fill="#E6E6E6"/>
<path d="M434.89 262.867C434.89 262.867 427.806 261.59 416.565 262.3C408.725 262.772 408.205 267.643 408.441 269.865C408.488 270.527 409.055 271 409.669 271L431.584 270.953C433.19 270.953 434.465 269.676 434.513 268.116L434.89 262.867Z" fill="#5D5E7E"/>
<path d="M578.093 151.179L582.627 147.349L578.235 141.344L573.937 144.938L578.093 151.179Z" fill="#E6E6E6"/>
<path d="M578.282 141.391C578.282 141.391 581.825 147.633 589.57 155.861C594.955 161.582 599.016 158.84 600.575 157.232C601.047 156.759 601.047 156.05 600.622 155.577L586.548 138.743C585.509 137.514 583.714 137.325 582.486 138.318L578.282 141.391Z" fill="#5D5E7E"/>
<path d="M449.673 53.2519L457.844 67.7684C457.844 67.7684 455.529 74.4356 444.95 74.6721L438.385 62.0942L449.673 53.2519Z" fill="#FEB78B"/>
<path d="M438.999 66.6336C430.167 66.7282 422.846 59.5881 422.751 50.7458L422.562 34.5743C422.468 25.7319 429.6 18.4027 438.432 18.3082C447.264 18.2136 454.585 25.3537 454.679 34.196L454.868 50.3675C454.963 59.2098 447.831 66.539 438.999 66.6336Z" fill="#FEB78B"/>
<path d="M429.412 38.1679C429.364 38.1679 429.364 38.1679 429.412 38.1679L426.719 38.0734C426.342 38.0734 426.011 37.7424 426.058 37.3168C426.058 36.9385 426.389 36.6075 426.814 36.6548L429.506 36.7494C429.884 36.7494 430.215 37.0804 430.167 37.5059C430.073 37.8842 429.789 38.1679 429.412 38.1679Z" fill="#58595B"/>
<path d="M423.083 41.6197C422.941 41.6197 422.846 41.6197 422.705 41.6197C421.524 41.5252 420.485 40.9577 419.729 40.1066C418.973 39.2082 418.596 38.0733 418.69 36.9385C418.879 34.527 421.004 32.7774 423.413 32.9666C425.822 33.1557 427.569 35.2835 427.381 37.6951C427.239 39.8702 425.302 41.6197 423.083 41.6197ZM423.083 34.2905C421.571 34.2905 420.296 35.4727 420.154 36.9858C420.107 37.7896 420.343 38.5462 420.863 39.1136C421.382 39.7283 422.091 40.0593 422.846 40.1539C424.452 40.2958 425.869 39.0663 426.011 37.4586C426.152 35.8509 424.925 34.4324 423.319 34.2905C423.224 34.2905 423.13 34.2905 423.083 34.2905Z" fill="#58595B"/>
<path d="M433.52 42.4709C433.378 42.4709 433.284 42.4709 433.142 42.4709C431.961 42.3763 430.922 41.8089 430.167 40.9577C429.411 40.0593 429.033 38.9245 429.128 37.7896C429.316 35.3781 431.442 33.5813 433.851 33.8177C436.259 34.0068 438.007 36.1347 437.818 38.5462C437.724 39.7283 437.157 40.7686 436.307 41.5252C435.504 42.1399 434.512 42.4709 433.52 42.4709ZM433.473 35.189C431.961 35.189 430.686 36.3711 430.544 37.8842C430.497 38.6881 430.733 39.4446 431.253 40.012C431.772 40.6268 432.481 40.9577 433.237 41.0523C434.04 41.0996 434.795 40.8632 435.362 40.343C435.976 39.8229 436.307 39.1136 436.401 38.3571C436.543 36.7494 435.315 35.3308 433.709 35.189C433.662 35.189 433.567 35.189 433.473 35.189Z" fill="#58595B"/>
<path d="M449.153 15.4238C450.901 12.4448 460.205 11.4045 460.205 23.6987C460.205 35.9928 457.796 52.1171 451.893 59.9191C448.634 64.222 439.093 69.8017 429.741 64.3166C425.963 62.0942 423.979 58.6424 423.413 54.6232C422.846 50.6039 428.986 51.0295 433.756 50.6985C438.526 50.3675 449.059 50.5566 451.231 46.8684C453.357 43.1802 454.065 33.9596 452.884 29.3729C451.704 24.7862 445.233 22.1855 449.153 15.4238Z" fill="#533C42"/>
<path d="M452.743 58.6897C459.497 51.5969 460.205 36.0401 460.205 23.6987C460.205 11.4045 450.901 12.4448 449.153 15.4238C445.233 22.1383 451.657 24.8335 452.837 29.4202C453.64 32.5883 453.593 37.9788 452.743 42.2345C452.082 45.6863 451.94 49.1854 452.46 52.6372C452.79 54.6704 452.885 56.089 452.743 58.6897Z" fill="#533C42"/>
<path d="M455.75 41.0004C456.204 39.2298 455.445 37.5049 454.055 37.1479C452.666 36.7908 451.171 37.9367 450.717 39.7073C450.263 41.478 451.022 43.2028 452.412 43.5599C453.801 43.917 455.296 42.771 455.75 41.0004Z" fill="#FEB78B"/>
<path d="M456.474 67.7684C456.474 67.7684 467.904 60.8175 471.918 59.2571C475.933 57.6967 500.965 52.117 508.381 53.3465C515.796 54.5759 545.74 76.989 545.74 76.989L539.694 84.1764L506.491 65.1677L479.9 77.1782L509.278 132.407L467.29 150.234L446.272 101.719L421.665 116.283L378.591 137.041L374.198 126.402L412.266 104.273L435.74 80.8664L443.391 74.6248L456.474 67.7684Z" fill="#9BD4DD"/>
<path d="M509.278 132.407L534.877 175.248L575.165 143.85L579.888 151.179L539.316 189.48C537.097 191.561 533.743 191.797 531.24 190.095L492.18 163.143L450.051 188.298L436.637 256.436H428.041L431.347 186.123C431.489 183.381 432.67 180.78 434.606 178.889L466.298 148.153L509.278 132.407Z" fill="#3E94AD"/>
<path d="M430.592 59.1625C431.87 59.1625 432.906 58.1252 432.906 56.8456C432.906 55.5659 431.87 54.5286 430.592 54.5286C429.313 54.5286 428.277 55.5659 428.277 56.8456C428.277 58.1252 429.313 59.1625 430.592 59.1625Z" fill="#CF7C79"/>
<path d="M456.474 65.1205C456.474 65.1205 460.158 66.1607 461.906 67.2483C463.795 68.4304 463.748 67.863 462.378 71.504C461.008 75.1449 454.066 82.1431 454.066 82.1431C454.066 82.1431 438.432 82.1431 443.58 72.2132C449.201 71.6458 452.035 69.2816 456.474 65.1205Z" fill="#DFECF4"/>
<path d="M588.389 119.404L587.445 119.357C587.445 119.262 587.964 110.041 584.941 105.218L585.744 104.698C588.909 109.805 588.389 119.026 588.389 119.404Z" fill="#D5D4D9"/>
<path d="M576.535 123.234C576.346 122.95 571.717 116.472 570.489 111.034L571.434 110.845C572.615 116.094 577.29 122.666 577.338 122.714L576.535 123.234Z" fill="#D5D4D9"/>
<path d="M578.189 125.25C579.246 125.086 579.971 124.096 579.808 123.038C579.645 121.98 578.656 121.254 577.599 121.418C576.542 121.581 575.818 122.571 575.98 123.629C576.143 124.687 577.132 125.413 578.189 125.25Z" fill="#524C4E"/>
<path d="M587.206 122.604C588.263 122.441 588.988 121.451 588.825 120.393C588.662 119.335 587.673 118.609 586.616 118.772C585.559 118.935 584.834 119.925 584.997 120.984C585.16 122.042 586.149 122.767 587.206 122.604Z" fill="#524C4E"/>
<path d="M548.055 120.633L549.141 120.113C549.047 119.877 536.483 97.2744 549.188 88.9049L548.905 87.9592C541.301 92.735 541.49 100.348 542.859 107.488C543.899 112.878 548.008 120.586 548.055 120.633Z" fill="black"/>
<path d="M573.937 97.2744L575.023 96.7542C567.797 84.3655 555.659 86.3515 555.328 86.3042V87.1081C562.46 87.4391 570.253 89.3777 573.937 97.2744Z" fill="black"/>
<path d="M571.339 112.737C571.055 112.737 570.772 112.547 570.678 112.264C570.536 111.933 567.466 103.847 569.827 100.064C571.15 97.9836 573.889 95.9977 577.006 96.2341C579.557 96.4705 583.288 98.3146 586.5 105.928C586.641 106.306 586.5 106.684 586.122 106.873C585.744 107.015 585.366 106.873 585.177 106.495C582.863 100.963 579.982 97.9364 576.865 97.6526C574.361 97.4635 572.047 99.1658 571.008 100.821C569.355 103.421 571.15 109.568 571.953 111.744C572.094 112.122 571.905 112.5 571.528 112.642C571.528 112.737 571.433 112.737 571.339 112.737Z" fill="black"/>
<path d="M549.856 122.683C551.609 122.413 552.812 120.771 552.541 119.016C552.271 117.261 550.631 116.057 548.878 116.328C547.125 116.598 545.923 118.24 546.193 119.995C546.463 121.75 548.103 122.954 549.856 122.683Z" fill="#E3E3E3"/>
<path opacity="0.3" d="M443.533 94.5791L466.393 148.106L473.052 145.694C473.052 145.694 471.305 125.031 454.113 97.3216C449.484 89.8506 443.58 78.6913 443.58 78.6913V94.5791H443.533Z" fill="#8FC4CD"/>
<path opacity="0.3" d="M463.322 72.5442C463.322 72.5442 480.656 107.441 486.229 115.81C488.78 119.64 495.77 129.523 498.32 133.116C503.61 140.588 531.807 170.188 531.807 170.188L509.278 132.407L481.648 77.4146L463.322 72.5442Z" fill="#8FC4CD"/>
<path opacity="0.3" d="M473.005 145.647C473.005 145.647 468.565 156.428 461.575 162.102C454.585 167.777 440.321 173.498 440.321 173.498L466.393 148.059L473.005 145.647Z" fill="#8FC4CD"/>
<path d="M431.915 84.7438L412.267 104.32L373.727 126.922L378.591 137.041L423.366 116.945L437.157 107.11L431.915 84.7438Z" fill="#C8DEEC"/>
<path d="M443.533 72.1187C443.533 72.1187 453.971 120.822 455.53 135.575C457.466 154.158 457.844 170.141 457.844 170.141C457.844 170.141 444.147 174.255 439.471 171.134L431.725 87.77C431.017 85.4531 432.953 81.9067 434.607 80.1571C435.882 78.8332 442.116 73.4426 443.533 72.1187Z" fill="#DFECF4"/>
<path d="M470.219 59.6354C470.219 59.6354 473.053 58.6424 483.254 56.2309C493.031 53.9139 501.06 53.441 501.06 53.441L507.767 52.8736C507.767 52.8736 516.883 56.8456 520.756 59.1152C524.628 61.3849 545.741 77.0363 545.741 77.0363L539.695 84.2237L506.492 65.215L490.481 72.4969L470.219 59.6354Z" fill="#DFECF4"/>
<path d="M456.474 65.1205C456.474 65.1205 481.931 97.3216 491.802 108.008C500.209 117.134 516.834 130.516 516.834 130.516C516.834 130.516 524.486 126.118 530.909 119.404L485.993 66.1607C485.993 66.1607 478.341 59.2571 475.555 58.737C471.682 57.9804 456.474 65.1205 456.474 65.1205Z" fill="#DFECF4"/>
<path d="M447.075 22.1856C449.2 21.098 452.365 17.6935 452.412 15.2346C452.459 12.3502 450.995 9.89141 448.303 8.75657C446.083 7.81087 442.352 7.85815 440.085 8.331C440.085 8.331 421.901 13.7688 422.893 31.0279C422.893 31.0279 423.979 24.2661 431.725 22.6584C439.66 21.0507 440.793 25.3537 447.075 22.1856Z" fill="#533C42"/>
<defs>
<linearGradient id="paint0_linear" x1="211.628" y1="124.539" x2="291.289" y2="124.539" gradientUnits="userSpaceOnUse">
<stop offset="6.5e-07" stop-color="#B7DEFF"/>
<stop offset="0.2112" stop-color="#BCE0FF"/>
<stop offset="0.4748" stop-color="#CCE8FF"/>
<stop offset="0.765" stop-color="#E5F3FF"/>
<stop offset="1" stop-color="white"/>
</linearGradient>
<radialGradient id="paint1_radial" cx="0" cy="0" r="1" gradientUnits="userSpaceOnUse" gradientTransform="translate(262.42 -0.95555) rotate(-21.8761) scale(69.2679 69.3788)">
<stop stop-color="#745166"/>
<stop offset="1" stop-color="#575D74"/>
</radialGradient>
<clipPath id="clip0">
<rect x="54" width="422" height="244" fill="white"/>
</clipPath>
</defs>
</svg>
