<svg width="209" height="25" viewBox="0 0 209 25" fill="none" xmlns="http://www.w3.org/2000/svg">
<g clip-path="url(#clip0)">
<path d="M52.886 25C52.8148 24.9822 52.7436 24.9644 52.6546 24.9466C51.8891 24.911 51.1415 24.8041 50.4117 24.5726C49.8598 24.3946 49.3258 24.1809 48.8452 23.807C48.2044 23.3084 47.8484 22.6496 47.7949 21.8305C47.7593 21.2429 47.884 20.7087 48.2044 20.2279C48.4002 19.943 48.6494 19.7115 48.9164 19.4979C49.1122 19.3554 49.3258 19.2308 49.5394 19.0883C49.6996 18.9993 49.6996 18.9281 49.5572 18.8212C49.1834 18.5541 48.8808 18.2158 48.685 17.7885C48.3468 17.0228 48.329 16.2571 48.685 15.4914C48.9342 14.9751 49.2902 14.5477 49.753 14.1916C49.7708 14.1738 49.7886 14.156 49.8064 14.1382C49.9845 13.9957 49.9845 13.9601 49.8064 13.8355C49.219 13.4081 48.774 12.8561 48.4714 12.1973C48.1866 11.5919 48.062 10.9508 48.0976 10.292C48.1154 9.82905 48.1866 9.3839 48.329 8.93874C48.5782 8.15526 49.0232 7.49643 49.6462 6.94444C50.4473 6.2678 51.3907 5.87606 52.4232 5.698C53.0996 5.57336 53.776 5.53774 54.4703 5.59116C54.9331 5.62677 55.3781 5.698 55.8231 5.82264C55.9477 5.85826 56.0902 5.87606 56.2148 5.87606C57.7456 5.87606 59.2765 5.87606 60.8074 5.87606C60.8786 5.87606 60.9498 5.87606 61.0388 5.87606C61.0388 6.99786 61.0388 8.08404 61.0388 9.20583C60.398 9.20583 59.7749 9.20583 59.1163 9.20583C59.1341 9.27706 59.1341 9.33048 59.1519 9.36609C59.3655 10.1318 59.3655 10.8974 59.2231 11.6809C58.9739 12.8917 58.2975 13.7999 57.1938 14.3875C56.553 14.7258 55.8587 14.9216 55.1289 15.0107C54.6127 15.0819 54.0965 15.1175 53.5802 15.0819C53.242 15.0641 52.9038 15.0107 52.5478 14.9573C52.3342 14.9216 52.2808 14.9216 52.1562 15.1175C51.9781 15.3846 51.9604 15.6695 52.0672 15.9722C52.1384 16.1859 52.3164 16.2927 52.5122 16.364C52.7792 16.453 53.064 16.5064 53.3488 16.5064C53.9184 16.5242 54.4881 16.5242 55.0577 16.5242C55.5917 16.5242 56.108 16.5242 56.642 16.542C57.443 16.5776 58.2441 16.6845 58.9917 16.9516C59.6147 17.1652 60.1844 17.4857 60.6116 18.0199C60.9142 18.3939 61.0922 18.8212 61.1812 19.2842C61.288 19.854 61.2702 20.4238 61.1278 20.9936C60.9854 21.5456 60.7362 22.0442 60.3802 22.4715C59.8995 23.0769 59.2765 23.5221 58.6001 23.8604C57.8702 24.2343 57.1048 24.4836 56.3216 24.6439C55.5917 24.7863 54.8619 24.8753 54.1143 24.911C54.0253 24.911 53.9362 24.9288 53.8472 24.9466C53.5446 25 53.2242 25 52.886 25ZM54.0609 22.1154C54.6661 22.1154 55.1467 22.0798 55.6451 21.9373C55.9121 21.8661 56.1792 21.7593 56.4106 21.599C56.5708 21.4922 56.7132 21.3497 56.8022 21.1716C56.9624 20.8333 56.8912 20.3526 56.4106 20.1923C56.286 20.1389 56.1614 20.1033 56.0189 20.1033C55.6629 20.0677 55.3247 20.0499 54.9687 20.0499C54.4525 20.032 53.9362 20.0499 53.42 20.032C52.9928 20.032 52.5656 19.9964 52.1562 19.9074C52.0672 19.8896 52.0138 19.9074 51.9604 19.9786C51.8713 20.0855 51.7823 20.1923 51.7111 20.3169C51.4797 20.7087 51.4441 21.3141 52.0138 21.688C52.2274 21.8305 52.4766 21.9195 52.7436 21.9729C53.2064 22.0976 53.687 22.1154 54.0609 22.1154ZM52.4232 10.6303C52.441 10.7728 52.4766 11.0221 52.5122 11.2714C52.5656 11.5385 52.6724 11.7699 52.8504 11.9658C53.2598 12.4466 54.0431 12.5178 54.5593 12.2507C54.9509 12.0548 55.1645 11.7165 55.2535 11.307C55.3781 10.8084 55.3959 10.292 55.2535 9.77563C55.1467 9.34828 54.9331 9.00996 54.5237 8.8141C54.2567 8.68945 53.9896 8.65384 53.687 8.68945C53.153 8.74287 52.797 9.00996 52.5834 9.49073C52.4588 9.81125 52.441 10.1674 52.4232 10.6303Z" fill="black"/>
<path d="M0 1.90526C0.124606 1.88745 0.231411 1.86964 0.356017 1.86964C1.70888 1.86964 3.06175 1.86964 4.41462 1.86964C4.48582 1.86964 4.55702 1.86964 4.64603 1.86964C4.64603 2.3148 4.64603 2.74215 4.64603 3.1695C4.64603 3.61466 4.64603 4.04201 4.64603 4.48717C4.64603 4.91452 4.64603 5.34187 4.64603 5.78702C4.64603 6.23218 4.64603 6.65953 4.64603 7.10469C4.64603 7.53204 4.64603 7.95939 4.64603 8.42235C4.73503 8.38674 4.78843 8.36893 4.82404 8.35113C4.85964 8.33332 4.87744 8.2799 4.89524 8.24429C6.30151 6.17876 7.68997 4.11323 9.09624 2.04771C9.18525 1.92306 9.27425 1.86964 9.43446 1.86964C10.9653 1.86964 12.4962 1.86964 14.0271 1.86964C14.0983 1.86964 14.1517 1.86964 14.2585 1.86964C14.2051 1.94087 14.1873 1.99429 14.1517 2.04771C13.2972 3.18731 12.4606 4.32691 11.624 5.46651C10.8051 6.5883 9.96849 7.7101 9.14965 8.83189C9.04284 8.99215 9.04284 8.99215 9.13185 9.15241C10.5559 11.5028 11.9622 13.8533 13.3685 16.2037C13.9737 17.2008 14.5611 18.198 15.1663 19.1773C15.2019 19.2308 15.2375 19.302 15.2909 19.391C15.2197 19.391 15.1841 19.4088 15.1307 19.4088C13.5465 19.4088 11.98 19.4088 10.3957 19.4088C10.2711 19.4088 10.2177 19.3554 10.1643 19.2486C9.20305 17.5926 8.2418 15.9188 7.28056 14.245C7.01354 13.782 6.74653 13.3013 6.47952 12.8383C6.44391 12.7849 6.40831 12.7315 6.37271 12.6602C6.30151 12.7315 6.26591 12.7671 6.2303 12.8027C5.74968 13.4971 5.25126 14.2094 4.77063 14.886C4.69943 14.9929 4.66383 15.0997 4.66383 15.2243C4.66383 16.542 4.66383 17.8419 4.66383 19.1595C4.66383 19.2308 4.66383 19.302 4.66383 19.4088C4.57482 19.4088 4.52142 19.4088 4.45022 19.4088C3.04395 19.4088 1.63768 19.4088 0.231411 19.4088C0.160208 19.4088 0.0890043 19.4088 0.0178009 19.4266C0 13.5862 0 7.74571 0 1.90526Z" fill="black"/>
<path d="M20.3467 5.68018C20.3645 5.7336 20.3823 5.78702 20.4001 5.84044C20.4357 5.53773 20.4357 5.21722 20.4357 4.91451C20.4357 4.594 20.4357 4.29129 20.4357 3.93517C20.507 3.98859 20.5604 4.0242 20.6138 4.05981C20.9698 4.34471 21.3258 4.61181 21.6818 4.89671C21.753 4.95013 21.8242 4.98574 21.931 4.96793C22.8211 4.96793 23.7111 4.96793 24.5834 4.96793C24.6546 4.96793 24.7258 4.96793 24.8148 4.96793C24.8148 3.95297 24.8148 2.97363 24.8148 1.97648C26.221 1.97648 27.5917 1.97648 28.998 1.97648C28.998 2.97363 28.998 3.95297 28.998 4.96793C29.9948 4.96793 30.9917 4.96793 31.9529 4.96793C31.9707 4.98574 31.9707 4.98574 31.9885 4.98574C31.9885 4.98574 32.0063 4.98574 32.0063 5.00354C32.0063 5.03916 32.0241 5.09258 32.0241 5.12819C32.0241 6.44585 32.0241 7.76352 32.0241 9.08118C32.0241 9.09899 32.0063 9.11679 32.0063 9.1524C31.0273 9.1524 30.0482 9.1524 29.0514 9.1524C29.0514 9.24144 29.0336 9.29485 29.0336 9.34827C29.0336 10.1496 29.0336 10.9508 29.0336 11.7521C29.0336 12.0192 29.0514 12.2863 29.0692 12.5534C29.1048 13.9423 28.731 15.2243 28.0189 16.4174C27.3603 17.5214 26.4524 18.3761 25.331 18.9815C24.5834 19.391 23.7823 19.6581 22.9279 19.7827C22.3404 19.8718 21.753 19.8896 21.1656 19.8184C20.1153 19.6937 19.1363 19.3732 18.2284 18.839C17.5164 18.4117 16.9112 17.8953 16.3772 17.2543C15.8253 16.631 15.4159 15.9366 15.1311 15.1709C14.9175 14.6189 14.7751 14.0313 14.7217 13.4259C14.6505 12.8383 14.6683 12.2329 14.7573 11.6275C14.8997 10.6659 15.2201 9.77562 15.7185 8.93873C16.4128 7.78132 17.374 6.90881 18.5667 6.26779C19.1185 5.98289 19.6881 5.78702 20.2933 5.64457C20.3111 5.66238 20.3289 5.66238 20.3467 5.68018ZM20.4357 10.0249C20.3467 10.0783 20.2755 10.1139 20.2221 10.1496C19.1897 10.8618 18.7269 11.859 18.8871 13.1054C19.0473 14.4053 20.1153 15.5092 21.5572 15.6695C22.2514 15.7407 22.9101 15.5983 23.4975 15.2065C24.4943 14.5655 25.0106 13.4081 24.8504 12.2329C24.8326 12.1439 24.8326 12.037 24.8326 11.948C24.8326 11.0933 24.8326 10.2208 24.8326 9.36608C24.8326 9.29486 24.8326 9.24144 24.8326 9.1524C24.7436 9.1524 24.6724 9.1524 24.619 9.1524C24.1205 9.1524 23.6043 9.1524 23.1059 9.1524C22.9635 9.1524 22.8567 9.18802 22.7499 9.27705C22.0556 9.82904 21.3614 10.381 20.6672 10.9152C20.6138 10.9508 20.5604 10.9865 20.4714 11.0577C20.4357 10.6837 20.4357 10.381 20.4357 10.0249Z" fill="black"/>
<path d="M36.9377 7.58546C37.0267 7.53204 37.0801 7.49642 37.1335 7.443C37.4896 7.1403 37.8456 6.81979 38.2372 6.55269C38.967 6.07192 39.7503 5.7336 40.6225 5.62677C41.4591 5.53773 42.278 5.59115 43.0612 5.91167C43.6843 6.17876 44.1827 6.5883 44.5565 7.1403C44.9659 7.74571 45.1973 8.42235 45.3219 9.1346C45.4643 9.81124 45.4999 10.4879 45.4999 11.1823C45.4999 13.8533 45.4999 16.5064 45.4999 19.1773C45.4999 19.2486 45.4999 19.302 45.4999 19.391C43.9513 19.391 42.4204 19.391 40.8717 19.391C40.8717 19.302 40.8717 19.2308 40.8717 19.1417C40.8717 16.7023 40.8717 14.2806 40.8717 11.8412C40.8717 11.485 40.8539 11.1289 40.8183 10.7906C40.8005 10.5947 40.7471 10.3988 40.6759 10.203C40.5513 9.82904 40.2665 9.59756 39.8749 9.52634C39.323 9.43731 38.8068 9.52634 38.344 9.82904C38.0592 10.0071 37.81 10.2386 37.543 10.4523C37.4896 10.5057 37.454 10.5591 37.4718 10.6303C37.4718 10.6837 37.4718 10.755 37.4718 10.8084C37.4718 13.5862 37.4718 16.3639 37.4718 19.1239C37.4718 19.1951 37.4718 19.2842 37.4718 19.3732C35.9231 19.3732 34.3922 19.3732 32.8613 19.3732C32.8613 14.886 32.8613 10.3988 32.8613 5.89386C34.1074 5.89386 35.3356 5.89386 36.5995 5.89386C36.6173 5.94728 36.6351 6.0007 36.6529 6.07192C36.7419 6.49927 36.8309 6.90882 36.9021 7.33617C36.9021 7.4252 36.9199 7.47862 36.9377 7.58546Z" fill="black"/>
<path d="M120.493 19.4088C118.944 19.4088 117.414 19.4088 115.9 19.4088C115.865 19.2842 115.847 6.2678 115.883 5.94729C116.007 5.91167 119.211 5.89387 119.621 5.92948C119.639 5.9829 119.656 6.05412 119.674 6.10754C119.763 6.51709 119.834 6.94444 119.923 7.35398C119.959 7.56766 120.012 7.58546 120.173 7.44301C120.547 7.1403 120.903 6.8376 121.276 6.5527C122.042 6.01851 122.896 5.68019 123.84 5.60897C124.463 5.55555 125.068 5.59116 125.655 5.76922C126.492 6.0007 127.151 6.48147 127.613 7.21153C128.005 7.81694 128.219 8.47578 128.361 9.17022C128.486 9.82905 128.521 10.5057 128.521 11.1823C128.521 13.8533 128.521 16.5242 128.521 19.1951C128.521 19.2486 128.521 19.3198 128.521 19.3732C128.379 19.4088 124.213 19.4266 123.911 19.391C123.911 19.3198 123.893 19.2486 123.893 19.1595C123.893 16.7379 123.893 14.3162 123.893 11.8946C123.893 11.5385 123.875 11.1823 123.84 10.8262C123.822 10.6303 123.768 10.4345 123.715 10.2386C123.573 9.82905 123.306 9.59757 122.878 9.54415C122.273 9.45512 121.704 9.59757 121.205 9.9537C120.974 10.114 120.778 10.3098 120.564 10.4879C120.511 10.5413 120.493 10.5947 120.493 10.6659C120.493 10.7194 120.493 10.7906 120.493 10.844C120.493 13.604 120.493 16.3818 120.493 19.1417C120.493 19.2308 120.493 19.302 120.493 19.4088Z" fill="black"/>
<path d="M152.056 19.4088C150.507 19.4088 148.976 19.4088 147.463 19.4088C147.446 19.391 147.446 19.391 147.446 19.391V19.3732C147.446 19.3554 147.428 19.3198 147.428 19.302C147.428 14.8682 147.428 10.4523 147.428 6.0185C147.428 6.0007 147.428 5.98289 147.428 5.96508C147.428 5.94728 147.446 5.94728 147.446 5.92947C148.674 5.92947 149.92 5.92947 151.166 5.92947C151.184 5.98289 151.202 6.03631 151.202 6.07192C151.291 6.49927 151.38 6.90881 151.451 7.33617C151.451 7.35397 151.451 7.38958 151.469 7.40739C151.504 7.54984 151.558 7.56765 151.664 7.47862C151.896 7.28275 152.109 7.08688 152.341 6.90882C152.982 6.39243 153.694 6.0007 154.477 5.78702C155.42 5.51993 156.382 5.51993 157.307 5.82263C158.073 6.05411 158.678 6.53488 159.123 7.19372C159.604 7.92377 159.835 8.72505 159.96 9.57976C160.049 10.1852 160.066 10.8084 160.066 11.4138C160.066 13.9957 160.066 16.5776 160.066 19.1595C160.066 19.2308 160.066 19.3198 160.066 19.391C159.924 19.4444 155.776 19.4444 155.456 19.4088C155.456 19.3376 155.438 19.2664 155.438 19.1773C155.438 17.0762 155.438 14.9929 155.438 12.8917C155.438 12.3397 155.42 11.8055 155.42 11.2535C155.42 10.933 155.367 10.6303 155.278 10.3276C155.136 9.88246 154.851 9.61537 154.388 9.56195C153.783 9.47292 153.249 9.61537 152.75 9.95369C152.519 10.1139 152.305 10.3098 152.092 10.5057C152.056 10.5413 152.038 10.6125 152.02 10.6659C152.003 10.7194 152.02 10.7728 152.02 10.8262C152.02 13.604 152.02 16.3818 152.02 19.1595C152.056 19.2308 152.056 19.302 152.056 19.4088Z" fill="black"/>
<path d="M106.734 5.59116C108.034 5.60896 109.262 5.94728 110.348 6.64173C111.167 7.15811 111.843 7.85255 112.341 8.67164C112.964 9.66879 113.285 10.7728 113.374 11.9302C113.463 13.052 113.374 14.156 113 15.2243C112.626 16.3461 112.003 17.3077 111.113 18.0912C110.188 18.8924 109.137 19.391 107.945 19.6047C106.894 19.8006 105.844 19.7471 104.829 19.4444C103.459 19.0349 102.32 18.2692 101.447 17.1296C100.735 16.2037 100.326 15.1353 100.148 13.9957C99.952 12.7493 100.023 11.5206 100.379 10.3098C100.575 9.66879 100.86 9.06338 101.234 8.51138C101.643 7.88816 102.159 7.35398 102.747 6.90882C103.37 6.44586 104.046 6.10754 104.794 5.89386C105.274 5.75141 105.755 5.66238 106.254 5.62677C106.414 5.60896 106.574 5.59116 106.734 5.59116ZM108.657 12.6602C108.657 12.4466 108.674 12.2329 108.657 12.0192C108.621 11.5028 108.55 10.9865 108.354 10.4879C108.087 9.82905 107.66 9.38389 106.912 9.31267C106.218 9.24144 105.648 9.49073 105.274 10.0961C105.096 10.381 104.99 10.7016 104.918 11.0399C104.74 11.8946 104.74 12.7493 104.812 13.604C104.847 14.0135 104.918 14.4231 105.079 14.8148C105.346 15.4914 105.809 15.9544 106.574 16.0078C107.233 16.0434 107.767 15.812 108.14 15.2422C108.336 14.9394 108.443 14.6011 108.514 14.2628C108.639 13.7286 108.692 13.1944 108.657 12.6602Z" fill="black"/>
<path d="M174.609 14.0669C172.046 14.0669 169.5 14.0669 166.937 14.0669C166.937 14.1204 166.937 14.156 166.955 14.1916C167.257 15.2421 167.952 15.901 169.02 16.1325C169.999 16.3461 170.96 16.2571 171.886 15.8654C172.135 15.7585 172.384 15.6339 172.651 15.5092C172.704 15.4914 172.74 15.4558 172.811 15.4202C173.31 16.3283 173.808 17.2364 174.307 18.1446C174.093 18.287 173.897 18.4117 173.684 18.5363C172.918 18.9637 172.117 19.2664 171.263 19.48C170.568 19.6403 169.874 19.7293 169.162 19.7115C168.343 19.6937 167.56 19.5691 166.795 19.2842C165.62 18.8746 164.623 18.1802 163.857 17.183C163.252 16.3996 162.861 15.5092 162.647 14.5477C162.398 13.4081 162.362 12.2507 162.576 11.0933C162.683 10.5057 162.861 9.95369 163.11 9.4195C163.519 8.52918 164.071 7.76351 164.819 7.12249C165.371 6.64172 165.994 6.26779 166.688 6.00069C167.204 5.80482 167.72 5.66238 168.272 5.60896C168.842 5.55554 169.411 5.57334 169.981 5.64457C170.462 5.71579 170.942 5.84044 171.405 6.03631C172.046 6.3034 172.615 6.67733 173.096 7.19371C173.808 7.94158 174.253 8.83189 174.52 9.82904C174.787 10.844 174.858 11.859 174.769 12.8917C174.752 13.2122 174.698 13.5506 174.645 13.8711C174.645 13.9423 174.627 13.9957 174.609 14.0669ZM170.853 11.0399C170.871 10.7906 170.835 10.5591 170.782 10.3276C170.622 9.68659 170.23 9.29485 169.589 9.1524C169.305 9.08118 169.02 9.08118 168.717 9.11679C168.432 9.1524 168.147 9.24144 167.898 9.38389C167.418 9.66879 167.151 10.0961 166.973 10.6125C166.919 10.755 166.901 10.8974 166.866 11.0399C168.201 11.0399 169.518 11.0399 170.853 11.0399Z" fill="black"/>
<path d="M85.7651 14.0669C83.2196 14.0669 80.6741 14.0669 78.093 14.0669C78.1642 14.3874 78.2888 14.6545 78.4312 14.9216C78.8584 15.6161 79.4814 16.0078 80.2825 16.1503C80.6563 16.2215 81.0479 16.2393 81.4217 16.2215C82.116 16.2037 82.7568 16.0078 83.3798 15.7229C83.5756 15.6339 83.7536 15.5449 83.9673 15.438C84.4657 16.3461 84.9641 17.2543 85.4625 18.1624C85.4091 18.198 85.3557 18.2336 85.3201 18.2692C84.2877 18.9458 83.1306 19.3732 81.9202 19.6047C81.1013 19.7471 80.2825 19.7649 79.4636 19.6581C78.7694 19.5691 78.1108 19.391 77.4699 19.1061C76.8825 18.839 76.3485 18.5007 75.8679 18.0911C75.2804 17.5926 74.8176 16.9872 74.4616 16.2927C74.1412 15.7051 73.9276 15.0641 73.803 14.4053C73.6071 13.3725 73.5715 12.3397 73.7318 11.307C73.8564 10.5235 74.0878 9.77562 74.4616 9.08118C74.8354 8.38673 75.2982 7.78132 75.8857 7.24713C76.3485 6.83759 76.8469 6.49927 77.3987 6.21437C77.9862 5.92947 78.5914 5.7336 79.2322 5.64457C80.1935 5.50212 81.1547 5.57334 82.0982 5.85824C83.1484 6.17875 84.0029 6.76636 84.6615 7.65668C85.2845 8.47576 85.6405 9.4195 85.8185 10.4166C86.0322 11.5741 86.0144 12.7493 85.8007 13.9067C85.8007 13.9423 85.7829 13.9601 85.7829 13.9957C85.7829 14.0313 85.7829 14.0491 85.7651 14.0669ZM78.0396 11.0221C78.3244 11.0577 81.9024 11.0577 82.0626 11.0221C82.027 10.8084 82.027 10.5947 81.9736 10.381C81.8668 9.88246 81.5997 9.47291 81.1013 9.25924C80.5495 9.02776 79.9799 9.02776 79.4102 9.22363C78.5914 9.52633 78.2176 10.203 78.0396 11.0221Z" fill="black"/>
<path d="M203.127 9.52634C201.596 9.52634 200.118 9.52634 198.623 9.52634C198.587 9.38389 198.57 6.19657 198.605 5.96509C198.73 5.92948 208.663 5.91167 208.876 5.96509C208.876 6.01851 208.894 6.07193 208.894 6.12534C208.894 6.8376 208.894 7.54985 208.894 8.2621C208.894 8.38674 208.859 8.47577 208.787 8.58261C207.167 10.8974 205.565 13.23 203.945 15.5627C203.892 15.6517 203.839 15.7229 203.75 15.8476C204.034 15.8654 204.284 15.8476 204.533 15.8476C204.782 15.8476 205.031 15.8476 205.281 15.8476C205.53 15.8476 205.779 15.8476 206.028 15.8476C206.277 15.8476 206.509 15.8476 206.758 15.8476C207.007 15.8476 207.256 15.8476 207.506 15.8476C207.755 15.8476 208.004 15.8476 208.253 15.8476C208.503 15.8476 208.752 15.8476 209.001 15.8476C209.001 17.0584 209.001 18.2336 209.001 19.4444C205.334 19.4444 201.685 19.4444 198.018 19.4444C198.018 19.391 198 19.3376 198 19.2842C198 18.5541 198 17.8419 198 17.1118C198 17.005 198.036 16.9337 198.089 16.8447C198.819 15.7941 199.566 14.7258 200.296 13.6752C200.973 12.6959 201.667 11.6987 202.343 10.7016C202.575 10.3632 202.806 10.0427 203.02 9.72221C203.055 9.65099 203.073 9.59757 203.127 9.52634Z" fill="black"/>
<path d="M87.4551 17.8419C88.1493 16.8803 88.8079 15.9366 89.4844 15.0107C89.7692 15.1887 90.0362 15.3846 90.3032 15.5448C90.855 15.8832 91.4247 16.1325 92.0655 16.2749C92.5639 16.3817 93.0801 16.3995 93.5786 16.2571C93.9524 16.1503 94.1482 15.8832 94.1304 15.527C94.1304 15.2956 94.0236 15.1353 93.8456 15.0107C93.6498 14.8682 93.4362 14.7436 93.2226 14.6367C92.7419 14.4231 92.2257 14.2272 91.7451 14.0491C91.0687 13.782 90.4278 13.4793 89.8404 13.0698C89.2886 12.6602 88.8257 12.1795 88.5231 11.574C88.2561 11.0577 88.1493 10.5235 88.1493 9.95368C88.1493 9.38388 88.2561 8.81408 88.4875 8.2977C88.6299 7.95938 88.8257 7.65667 89.0572 7.38958C89.6802 6.62391 90.5168 6.17875 91.4425 5.91166C92.3681 5.64456 93.3116 5.57334 94.255 5.68018C95.2519 5.76921 96.1953 6.07191 97.0675 6.55268C97.477 6.78416 97.8686 7.05126 98.278 7.30055C98.3314 7.33616 98.367 7.37177 98.4382 7.42519C97.7618 8.33331 97.0853 9.24143 96.4089 10.1674C96.3199 10.1139 96.2487 10.0605 96.1597 10.0071C95.7147 9.70439 95.2519 9.4373 94.7534 9.25923C94.255 9.08117 93.7388 8.99214 93.2226 9.08117C93.1335 9.09898 93.0267 9.11678 92.9377 9.1524C92.6885 9.24143 92.5283 9.40168 92.4749 9.66878C92.4215 9.93587 92.5105 10.1674 92.7419 10.3454C93.0267 10.5769 93.365 10.7015 93.7032 10.844C94.3084 11.0577 94.8958 11.2713 95.5011 11.5028C96.1419 11.7521 96.7293 12.0904 97.2456 12.5534C97.9042 13.141 98.2958 13.8711 98.4204 14.7614C98.5272 15.5627 98.4382 16.3283 98.1178 17.0762C97.8508 17.6816 97.4592 18.198 96.9251 18.5897C96.1775 19.1595 95.3409 19.48 94.433 19.6581C93.6854 19.8005 92.9199 19.8362 92.1723 19.7827C91.6205 19.7471 91.0865 19.6403 90.5702 19.48C89.7158 19.2307 88.8969 18.8746 88.1315 18.3938C87.8823 18.1624 87.6865 18.0021 87.4551 17.8419Z" fill="black"/>
<path d="M196.183 6.99785C195.471 7.97719 194.759 8.95654 194.047 9.93588C193.994 9.90027 193.923 9.86466 193.887 9.82905C193.602 9.61537 193.317 9.4195 192.961 9.34828C192.089 9.20583 191.306 9.40169 190.665 10.0427C190.256 10.4523 190.024 10.9686 189.9 11.5384C189.704 12.4644 189.722 13.3903 190.06 14.2806C190.291 14.886 190.647 15.3846 191.217 15.7051C191.769 16.0256 192.374 16.079 192.997 15.9366C193.424 15.8298 193.816 15.6339 194.19 15.4024C194.296 15.3312 194.403 15.26 194.546 15.1709C195.133 16.1859 195.72 17.1652 196.326 18.1802C196.13 18.3226 195.97 18.4651 195.774 18.5897C195.275 18.928 194.741 19.1951 194.154 19.3732C193.673 19.5335 193.175 19.6225 192.677 19.6759C192.178 19.7293 191.697 19.7293 191.199 19.6937C190.683 19.6581 190.184 19.5691 189.686 19.4266C189.116 19.2664 188.582 19.0349 188.102 18.7144C187.479 18.3404 186.962 17.8597 186.517 17.2899C185.983 16.6132 185.61 15.8476 185.378 15.0107C185.271 14.6011 185.2 14.1916 185.147 13.782C185.022 12.8917 185.04 12.0014 185.218 11.1111C185.432 10.0427 185.841 9.06338 186.535 8.20868C187.034 7.60326 187.603 7.08688 188.28 6.67734C188.707 6.41024 189.17 6.19657 189.668 6.0185C190.487 5.7336 191.341 5.59115 192.214 5.57335C193.673 5.55554 195.008 5.96509 196.148 6.90882C196.13 6.94443 196.148 6.96224 196.183 6.99785Z" fill="black"/>
<path d="M137.476 15.99C137.654 17.1118 137.832 18.2336 138.01 19.3732C137.832 19.4266 137.672 19.4979 137.494 19.5335C136.746 19.7293 135.963 19.765 135.197 19.7115C134.45 19.6581 133.738 19.4444 133.132 18.9815C132.741 18.6788 132.438 18.3226 132.225 17.8775C131.904 17.2543 131.744 16.5954 131.673 15.9188C131.637 15.4736 131.602 15.0285 131.602 14.5833C131.602 10.0249 131.602 5.44872 131.602 0.890313C131.602 0.819088 131.602 0.747863 131.602 0.676638C131.744 0.641025 135.892 0.623219 136.212 0.658831C136.212 0.694444 136.23 0.730056 136.23 0.783475C136.23 0.836894 136.23 0.908119 136.23 0.961538C136.23 5.53775 136.23 10.114 136.23 14.6902C136.23 14.9217 136.265 15.1531 136.301 15.3846C136.319 15.5093 136.372 15.6161 136.443 15.7229C136.568 15.9366 136.799 16.0256 137.066 16.0256C137.191 16.0256 137.316 16.0078 137.476 15.99Z" fill="black"/>
<path d="M63.3174 5.92947C64.5635 5.92947 65.8096 5.92947 67.0556 5.92947C67.0734 6.0363 67.0912 6.14314 67.109 6.24998C67.198 6.85539 67.287 7.4608 67.3582 8.06622C67.3582 8.11964 67.3404 8.20867 67.4294 8.22647C67.5184 8.24428 67.5362 8.15525 67.5718 8.10183C67.8389 7.63887 68.1593 7.21152 68.5331 6.83759C69.1027 6.28559 69.7614 5.87605 70.5446 5.68018C71.0608 5.55553 71.5948 5.57334 72.1111 5.64457C72.3069 5.66237 72.5027 5.71579 72.6985 5.76921C72.7875 5.78702 72.8765 5.82263 72.9833 5.87605C72.7341 7.19371 72.4849 8.52918 72.2357 9.84684C72.0221 9.81123 71.8263 9.75781 71.6304 9.7222C71.1498 9.63317 70.687 9.57975 70.2064 9.68659C69.5477 9.82904 69.0315 10.1852 68.6043 10.6837C68.3373 10.9864 68.1415 11.3426 67.9813 11.7165C67.9279 11.8411 67.9101 11.9658 67.9101 12.1082C67.9101 14.4587 67.9101 16.8091 67.9101 19.1595C67.9101 19.2307 67.9101 19.3198 67.9101 19.4088C66.3614 19.4088 64.8305 19.4088 63.3174 19.4088C63.2996 19.2664 63.2818 6.26778 63.3174 5.92947Z" fill="black"/>
<path d="M139.665 5.92947C141.196 5.92947 142.727 5.92947 144.258 5.92947C144.258 10.4167 144.258 14.9038 144.258 19.4088C142.727 19.4088 141.196 19.4088 139.665 19.4088C139.63 19.2664 139.63 6.23218 139.665 5.92947Z" fill="black"/>
<path d="M180.091 19.7293C178.863 19.7293 177.848 18.9637 177.528 17.7706C177.278 16.8625 177.403 16.0078 177.937 15.2422C178.346 14.6545 178.934 14.2984 179.646 14.1738C181.284 13.9067 182.601 15.0463 182.761 16.5776C182.832 17.2187 182.725 17.8419 182.405 18.4117C181.924 19.2486 181.088 19.7293 180.091 19.7293Z" fill="black"/>
<path d="M142.034 4.25569C141.108 4.25569 140.325 3.66808 140.075 2.75996C139.88 2.06552 139.969 1.42449 140.396 0.819077C140.716 0.37392 141.161 0.0890199 141.695 0.0177948C142.941 -0.178074 143.938 0.694433 144.063 1.85184C144.116 2.35042 144.045 2.81338 143.796 3.24073C143.422 3.89956 142.781 4.27349 142.034 4.25569Z" fill="black"/>
<path d="M22.9986 9.08117C23.0876 9.00995 23.1766 8.93872 23.2656 8.8853C23.4615 8.72505 23.6751 8.56479 23.8709 8.40453C24.0667 8.26208 24.2447 8.11963 24.4405 7.95938C24.6007 7.83473 24.7609 7.71009 24.9211 7.58545C24.9923 7.51422 24.9923 7.4608 24.9033 7.38958C24.5651 7.12248 24.2269 6.87319 23.9065 6.6061C23.7285 6.46365 23.5505 6.33901 23.3724 6.19656C23.1588 6.01849 22.9274 5.84043 22.7138 5.66237C22.5358 5.51992 22.3578 5.39527 22.1798 5.25282C22.073 5.16379 21.9662 5.07476 21.8594 4.98573C21.8594 4.98573 21.8594 4.96792 21.8772 4.96792C21.9128 4.96792 21.9484 4.95012 21.984 4.95012C22.8918 4.95012 23.7997 4.95012 24.7075 4.95012C24.8321 4.95012 24.8321 4.95012 24.8321 4.82547C24.8321 3.89955 24.8321 2.99143 24.8321 2.0655C24.8321 2.02989 24.8321 1.99428 24.8321 1.95866C26.2206 1.95866 27.6091 1.95866 28.9975 1.95866C28.9975 1.99428 28.9975 2.02989 28.9975 2.0655C28.9975 2.99143 28.9975 3.89955 28.9975 4.82547C28.9975 4.96792 28.9975 4.96792 29.1399 4.96792C30.0478 4.96792 30.9734 4.96792 31.8813 4.96792C31.9169 4.96792 31.9525 4.96792 32.0059 4.96792C32.0059 6.35681 32.0059 7.7279 32.0059 9.11678C31.9703 9.11678 31.9347 9.11678 31.8813 9.11678C30.9734 9.11678 30.0656 9.11678 29.1577 9.11678C29.0153 9.11678 28.9975 9.13459 28.9975 9.27704C28.9975 10.0961 28.9975 10.8974 28.9975 11.7165C28.9975 11.8233 28.9975 11.9302 29.0153 12.037C29.0153 12.1795 29.0153 12.1795 28.8907 12.1795C27.7693 12.1795 26.63 12.1795 25.5086 12.1795C25.3305 12.1795 25.1525 12.1795 24.9567 12.1795C24.8321 12.1795 24.8321 12.1795 24.8321 12.0548C24.8321 11.1111 24.8321 10.1852 24.8321 9.24143C24.8321 9.11678 24.8321 9.11678 24.7075 9.11678C24.1735 9.11678 23.6395 9.11678 23.1054 9.11678C23.0698 9.11678 23.0342 9.11678 22.9986 9.11678C23.0164 9.09898 23.0164 9.09898 22.9986 9.08117Z" fill="#E30613"/>
</g>
<defs>
<clipPath id="clip0">
<rect width="209" height="25" fill="white"/>
</clipPath>
</defs>
</svg>
