<svg width="25" height="25" viewBox="0 0 25 25" fill="none" xmlns="http://www.w3.org/2000/svg">
<path d="M14.2059 12.5L16.7645 9.94139C17.0785 9.62741 17.0785 9.11835 16.7645 8.80412L16.1959 8.23548C15.8819 7.92151 15.3728 7.92151 15.0586 8.23548L12.5 10.7941L9.94139 8.23548C9.62741 7.92151 9.11835 7.92151 8.80412 8.23548L8.23548 8.80412C7.92151 9.1181 7.92151 9.62716 8.23548 9.94139L10.7941 12.5L8.23548 15.0586C7.92151 15.3726 7.92151 15.8816 8.23548 16.1959L8.80412 16.7645C9.1181 17.0785 9.62741 17.0785 9.94139 16.7645L12.5 14.2059L15.0586 16.7645C15.3726 17.0785 15.8819 17.0785 16.1959 16.7645L16.7645 16.1959C17.0785 15.8819 17.0785 15.3728 16.7645 15.0586L14.2059 12.5Z" fill="#E30613"/>
<circle cx="12.5" cy="12.5" r="12" stroke="#E30613"/>
</svg>
